<svg width="16" height="16" viewBox="0 0 16 16" fill="none" xmlns="http://www.w3.org/2000/svg">
<path fill-rule="evenodd" clip-rule="evenodd" d="M7.24992 2.16634C4.44247 2.16634 2.16659 4.44223 2.16659 7.24967C2.16659 10.0571 4.44247 12.333 7.24992 12.333C8.65251 12.333 9.92136 11.7658 10.8418 10.8467C11.7639 9.92589 12.3333 8.6549 12.3333 7.24967C12.3333 4.44223 10.0574 2.16634 7.24992 2.16634ZM0.833252 7.24967C0.833252 3.70585 3.70609 0.833008 7.24992 0.833008C10.7937 0.833008 13.6666 3.70585 13.6666 7.24967C13.6666 8.78248 13.1285 10.1905 12.2319 11.2939L14.9709 14.0278C15.2315 14.2879 15.2319 14.7101 14.9718 14.9706C14.7116 15.2312 14.2895 15.2316 14.0289 14.9715L11.2886 12.2362C10.1861 13.13 8.78014 13.6663 7.24992 13.6663C3.70609 13.6663 0.833252 10.7935 0.833252 7.24967Z" fill="#9A9CA5"/>
</svg>
