<svg width="507" height="454" viewBox="0 0 507 454" fill="none" xmlns="http://www.w3.org/2000/svg">
<path d="M406.421 453.521H0L166.082 60.1514H240.34L406.421 453.521Z" fill="#D0F0E4"/>
<path fill-rule="evenodd" clip-rule="evenodd" d="M203.212 22.8525L210.593 30.2155L209.916 30.8913L203.212 24.2042L196.508 30.8913L195.831 30.2155L203.212 22.8525Z" fill="#FFCF2D"/>
<path fill-rule="evenodd" clip-rule="evenodd" d="M203.69 0V23.5283H202.731V0H203.69Z" fill="#FFCF2D"/>
<path d="M203.21 72.4172C209.472 72.4172 214.548 67.3535 214.548 61.107C214.548 54.8606 209.472 49.7969 203.21 49.7969C196.948 49.7969 191.872 54.8606 191.872 61.107C191.872 67.3535 196.948 72.4172 203.21 72.4172Z" fill="#FFCF2D"/>
<path fill-rule="evenodd" clip-rule="evenodd" d="M203.21 50.2741C197.213 50.2741 192.351 55.1239 192.351 61.1064C192.351 67.0889 197.213 71.9387 203.21 71.9387C209.207 71.9387 214.069 67.0889 214.069 61.1064C214.069 55.1239 209.207 50.2741 203.21 50.2741ZM191.393 61.1064C191.393 54.596 196.683 49.3184 203.21 49.3184C209.736 49.3184 215.027 54.596 215.027 61.1064C215.027 67.6168 209.736 72.8944 203.21 72.8944C196.683 72.8944 191.393 67.6168 191.393 61.1064Z" fill="white"/>
<path fill-rule="evenodd" clip-rule="evenodd" d="M203.227 30.5056C185.707 30.5056 170.755 41.1638 167.556 55.745L166.693 59.673H239.745L238.881 55.7291C238.881 55.729 238.881 55.7289 238.881 55.7288C237.281 48.4363 232.76 42.1298 226.425 37.6497L226.424 37.6494C220.104 33.1687 211.978 30.5056 203.227 30.5056ZM166.62 55.5405C169.936 40.4286 185.358 29.5498 203.227 29.5498C212.17 29.5498 220.491 32.2708 226.979 36.87C233.483 41.4697 238.16 47.9707 239.817 55.5247L239.818 55.5249L240.935 60.6288H165.502L166.62 55.5405C166.62 55.5405 166.62 55.5406 166.62 55.5405Z" fill="#9A3B82"/>
<path d="M338.266 313.849H330.729V361.319H338.266V313.849Z" fill="#66B0F0"/>
<path d="M475.141 361.319H432.232C430.683 361.319 429.485 359.981 429.676 358.452L435.649 308.161C435.809 306.871 436.911 305.899 438.204 305.899H481.114C482.663 305.899 483.861 307.238 483.669 308.767L477.696 359.057C477.537 360.347 476.435 361.319 475.141 361.319Z" fill="#9A3B82"/>
<path d="M451.762 361.32H417.875C415.799 361.32 414.186 359.504 414.426 357.449L418.77 320.826C418.977 319.09 420.462 317.768 422.219 317.768H456.92L451.762 361.32Z" fill="white"/>
<path fill-rule="evenodd" clip-rule="evenodd" d="M419.245 320.883C419.245 320.883 419.245 320.883 419.245 320.883L414.901 357.504C414.901 357.504 414.901 357.504 414.901 357.505C414.695 359.277 416.087 360.842 417.875 360.842H451.336L456.381 318.246H422.219C420.706 318.246 419.424 319.386 419.245 320.883ZM418.294 320.77C418.53 318.794 420.218 317.29 422.219 317.29H457.459L452.188 361.798H417.875C415.511 361.798 413.677 359.731 413.95 357.394L413.95 357.393L418.294 320.77Z" fill="#FFCF2D"/>
<path d="M455.563 361.32H423.225C421.149 361.32 419.536 359.504 419.776 357.449L424.119 320.826C424.327 319.09 425.812 317.768 427.569 317.768H460.322C461.36 317.768 462.174 318.676 462.047 319.711L457.288 359.774C457.192 360.666 456.441 361.32 455.563 361.32Z" fill="white"/>
<path fill-rule="evenodd" clip-rule="evenodd" d="M424.595 320.883C424.595 320.883 424.595 320.883 424.595 320.883L420.251 357.504C420.251 357.504 420.251 357.504 420.251 357.505C420.045 359.277 421.437 360.842 423.225 360.842H455.563C456.2 360.842 456.742 360.369 456.811 359.724L456.811 359.721L461.571 319.655L461.571 319.653C461.663 318.905 461.074 318.246 460.322 318.246H427.568C426.055 318.246 424.774 319.386 424.595 320.883ZM423.643 320.77C423.879 318.794 425.568 317.29 427.568 317.29H460.322C461.645 317.29 462.685 318.447 462.522 319.769C462.522 319.769 462.522 319.769 462.522 319.77L457.764 359.826C457.764 359.826 457.764 359.827 457.763 359.828C457.64 360.966 456.681 361.798 455.563 361.798H423.225C420.861 361.798 419.027 359.731 419.299 357.394L419.299 357.393L423.643 320.77Z" fill="#FFCF2D"/>
<path fill-rule="evenodd" clip-rule="evenodd" d="M338.268 320.506H352.305V361.796H338.268V320.506ZM339.226 321.462V360.84H351.347V321.462H339.226Z" fill="#9A3B82"/>
<path fill-rule="evenodd" clip-rule="evenodd" d="M346.795 320.506H366.166V361.796H346.795V320.506ZM347.753 321.462V360.84H365.208V321.462H347.753Z" fill="#9A3B82"/>
<path fill-rule="evenodd" clip-rule="evenodd" d="M363.224 316.078H369.358L388.718 361.797H382.584L363.224 316.078ZM364.669 317.034L383.219 360.841H387.273L368.723 317.034H364.669Z" fill="#9A3B82"/>
<path fill-rule="evenodd" clip-rule="evenodd" d="M371.172 322.881H381.701L398.432 361.797H387.904L371.172 322.881ZM372.626 323.837L388.536 360.842H396.979L381.069 323.837H372.626Z" fill="#9A3B82"/>
<path fill-rule="evenodd" clip-rule="evenodd" d="M316.581 320.506H330.729V361.796H316.581V320.506ZM317.539 321.462V360.84H329.771V321.462H317.539Z" fill="#9A3B82"/>
<path fill-rule="evenodd" clip-rule="evenodd" d="M316.581 289.587H378.893V298.412H316.581V289.587ZM317.539 290.543V297.456H377.935V290.543H317.539Z" fill="#9A3B82"/>
<path d="M394.782 284.043H317.059V290.383H394.782V284.043Z" fill="#FE5244"/>
<path d="M369.519 274.898H317.059V283.883H369.519V274.898Z" fill="#FFCF2D"/>
<path fill-rule="evenodd" clip-rule="evenodd" d="M316.581 267.556H378.893V275.218H316.581V267.556ZM317.539 268.511V274.262H377.935V268.511H317.539Z" fill="#9A3B82"/>
<path d="M484.275 250.352L484.227 250.623L476.977 297.934H409.713L416.963 250.623L417.059 249.954C418.209 247.628 425.236 245.828 433.747 245.828C443.058 245.828 450.595 247.979 450.595 250.623C450.595 247.979 458.133 245.828 467.443 245.828C476.434 245.844 483.764 247.835 484.275 250.352Z" fill="white"/>
<path fill-rule="evenodd" clip-rule="evenodd" d="M417.522 250.102L417.438 250.692L410.272 297.456H476.565L483.754 250.545L483.786 250.367C483.667 249.957 483.259 249.483 482.446 248.994C481.599 248.485 480.401 248.014 478.914 247.613C475.944 246.812 471.907 246.313 467.443 246.305C462.819 246.305 458.654 246.84 455.659 247.693C454.159 248.12 452.98 248.62 452.186 249.154C451.376 249.699 451.074 250.204 451.074 250.622H450.116C450.116 250.204 449.814 249.699 449.004 249.154C448.211 248.62 447.032 248.12 445.531 247.693C442.537 246.84 438.371 246.305 433.748 246.305C429.522 246.305 425.678 246.753 422.759 247.482C421.299 247.847 420.086 248.279 419.177 248.751C418.296 249.209 417.761 249.675 417.522 250.102ZM450.595 249.315C450.327 248.963 449.962 248.645 449.54 248.361C448.629 247.748 447.342 247.215 445.794 246.774C442.692 245.89 438.434 245.35 433.748 245.35C429.462 245.35 425.537 245.802 422.526 246.555C421.022 246.931 419.732 247.385 418.734 247.904C417.75 248.415 416.985 249.023 416.63 249.742L416.596 249.81L416.489 250.555L409.156 298.412H477.388L484.7 250.7L484.762 250.345L484.744 250.257C484.576 249.426 483.874 248.737 482.941 248.176C481.989 247.603 480.697 247.104 479.164 246.69C476.093 245.862 471.97 245.358 467.444 245.35H467.443C462.756 245.35 458.498 245.89 455.396 246.774C453.849 247.215 452.562 247.748 451.651 248.361C451.229 248.645 450.864 248.963 450.595 249.315Z" fill="#FFCF2D"/>
<path fill-rule="evenodd" clip-rule="evenodd" d="M451.084 250.71L443.898 298.021L442.95 297.878L450.136 250.566L451.084 250.71Z" fill="#FFCF2D"/>
<path d="M443.425 297.95C443.425 295.306 435.887 293.155 426.577 293.155C417.267 293.155 409.729 295.306 409.729 297.95H443.425Z" fill="#FFCF2D"/>
<path d="M477.121 297.95C477.121 295.306 469.584 293.155 460.273 293.155C450.963 293.155 443.426 295.306 443.426 297.95H477.121Z" fill="#FFCF2D"/>
<path fill-rule="evenodd" clip-rule="evenodd" d="M482.177 247.793C482.439 247.835 482.617 248.079 482.575 248.34L475.296 293.989L474.743 293.776C471.807 292.645 466.146 291.834 460.369 292.04C455.745 292.206 451.599 292.886 448.636 293.843C447.151 294.322 445.99 294.862 445.217 295.423C444.427 295.996 444.143 296.511 444.159 296.929C444.168 297.193 443.961 297.415 443.697 297.424C443.433 297.434 443.211 297.227 443.201 296.964C443.168 296.06 443.781 295.283 444.653 294.65C445.542 294.006 446.81 293.428 448.341 292.933C451.41 291.943 455.648 291.253 460.335 291.085C465.851 290.888 471.328 291.601 474.534 292.685L481.629 248.19C481.671 247.929 481.916 247.752 482.177 247.793Z" fill="#FFCF2D"/>
<path d="M478.91 234.566H418.514V221.153C418.514 219.831 419.584 218.764 420.91 218.764H476.531C477.856 218.764 478.926 219.831 478.926 221.153V234.566H478.91Z" fill="white"/>
<path fill-rule="evenodd" clip-rule="evenodd" d="M420.909 219.241C419.848 219.241 418.992 220.094 418.992 221.153V234.087H478.446V221.153C478.446 220.094 477.591 219.241 476.53 219.241H420.909ZM418.034 221.153C418.034 219.566 419.319 218.285 420.909 218.285H476.53C478.12 218.285 479.405 219.566 479.405 221.153V235.043H418.034V221.153Z" fill="#9A3B82"/>
<path d="M483.732 218.126H431.688C430.874 218.126 430.235 217.473 430.235 216.677V211.34C430.235 210.528 430.89 209.891 431.688 209.891H483.732C484.547 209.891 485.186 210.544 485.186 211.34V216.677C485.186 217.473 484.531 218.126 483.732 218.126Z" fill="#FFCF2D"/>
<path d="M485.761 204.889H424.023V209.891H485.761V204.889Z" fill="#FE5244"/>
<path d="M484.642 204.889H437.516C436.893 204.889 436.398 204.38 436.398 203.774V199.744C436.398 199.123 436.909 198.629 437.516 198.629H484.642C485.265 198.629 485.76 199.139 485.76 199.744V203.774C485.76 204.38 485.265 204.889 484.642 204.889Z" fill="white"/>
<path fill-rule="evenodd" clip-rule="evenodd" d="M437.517 199.106C437.171 199.106 436.879 199.39 436.879 199.743V203.774C436.879 204.119 437.164 204.411 437.517 204.411H484.643C484.997 204.411 485.282 204.119 485.282 203.774V199.743C485.282 199.398 484.997 199.106 484.643 199.106H437.517ZM435.92 199.743C435.92 198.854 436.65 198.15 437.517 198.15H484.643C485.535 198.15 486.24 198.879 486.24 199.743V203.774C486.24 204.638 485.535 205.367 484.643 205.367H437.517C436.626 205.367 435.92 204.638 435.92 203.774V199.743Z" fill="#9A3B82"/>
<path fill-rule="evenodd" clip-rule="evenodd" d="M336.397 184.881H355.481V235.044H336.397V184.881ZM337.356 185.837V234.088H354.523V185.837H337.356Z" fill="#9A3B82"/>
<path d="M336.878 185.358H329.564V234.565H336.878V185.358Z" fill="white"/>
<path fill-rule="evenodd" clip-rule="evenodd" d="M329.085 184.881H337.357V235.044H329.085V184.881ZM330.043 185.837V234.088H336.399V185.837H330.043Z" fill="#9A3B82"/>
<path d="M329.563 185.358H317.267V234.565H329.563V185.358Z" fill="white"/>
<path fill-rule="evenodd" clip-rule="evenodd" d="M316.788 184.881H330.043V235.044H316.788V184.881ZM317.746 185.837V234.088H329.084V185.837H317.746Z" fill="#9A3B82"/>
<path fill-rule="evenodd" clip-rule="evenodd" d="M356.919 193.77H373.767V235.06H356.919V193.77ZM357.878 194.725V234.104H372.809V194.725H357.878Z" fill="#9A3B82"/>
<path d="M358.548 234.566H352.288C351.681 234.566 351.17 234.072 351.17 233.451V195.331C351.17 194.726 351.665 194.216 352.288 194.216H358.548C359.155 194.216 359.666 194.71 359.666 195.331V233.451C359.65 234.072 359.155 234.566 358.548 234.566Z" fill="white"/>
<path fill-rule="evenodd" clip-rule="evenodd" d="M352.289 194.694C351.935 194.694 351.65 194.985 351.65 195.331V233.451C351.65 233.804 351.942 234.088 352.289 234.088H358.549C358.883 234.088 359.175 233.815 359.188 233.444V195.331C359.188 194.978 358.896 194.694 358.549 194.694H352.289ZM350.692 195.331C350.692 194.466 351.397 193.738 352.289 193.738H358.549C359.416 193.738 360.146 194.442 360.146 195.331V233.457L360.146 233.463C360.123 234.332 359.427 235.044 358.549 235.044H352.289C351.422 235.044 350.692 234.341 350.692 233.451V195.331Z" fill="#9A3B82"/>
<path d="M373.288 194.248V216.359L364.681 194.248H373.288Z" fill="#9A3B82"/>
<path d="M410.081 234.566H384.658C384.099 234.566 383.588 234.216 383.396 233.706L366.884 191.301C366.532 190.409 367.187 189.453 368.145 189.453H393.569C394.128 189.453 394.639 189.804 394.83 190.313L411.343 232.718C411.694 233.61 411.039 234.566 410.081 234.566Z" fill="white"/>
<path fill-rule="evenodd" clip-rule="evenodd" d="M368.146 189.93C367.525 189.93 367.102 190.547 367.33 191.126L367.331 191.127L383.844 233.535L383.845 233.538C383.965 233.857 384.295 234.088 384.658 234.088H410.082C410.702 234.088 411.125 233.471 410.897 232.892L394.383 190.483L394.382 190.48C394.262 190.161 393.933 189.93 393.569 189.93H368.146ZM366.438 191.474C365.964 190.269 366.851 188.975 368.146 188.975H393.569C394.322 188.975 395.014 189.443 395.278 190.142C395.279 190.143 395.279 190.144 395.279 190.145L411.789 232.543C411.789 232.543 411.789 232.543 411.789 232.543C412.264 233.749 411.377 235.043 410.082 235.043H384.658C383.905 235.043 383.213 234.575 382.949 233.876C382.949 233.875 382.948 233.874 382.948 233.873L366.438 191.475C366.438 191.475 366.438 191.474 366.438 191.474Z" fill="#FFCF2D"/>
<path d="M414.233 234.566H388.809C388.251 234.566 387.74 234.216 387.548 233.706L371.036 191.301C370.684 190.409 371.339 189.453 372.297 189.453H397.72C398.279 189.453 398.79 189.804 398.982 190.313L415.494 232.718C415.846 233.61 415.191 234.566 414.233 234.566Z" fill="white"/>
<path fill-rule="evenodd" clip-rule="evenodd" d="M372.298 189.93C371.677 189.93 371.254 190.547 371.482 191.126L371.483 191.127L387.996 233.535L387.997 233.538C388.117 233.857 388.446 234.088 388.81 234.088H414.233C414.854 234.088 415.277 233.471 415.049 232.892L398.535 190.483L398.534 190.48C398.414 190.161 398.085 189.93 397.721 189.93H372.298ZM370.59 191.474C370.116 190.269 371.002 188.975 372.298 188.975H397.721C398.474 188.975 399.166 189.443 399.43 190.142C399.43 190.143 399.431 190.144 399.431 190.145L415.941 232.543C415.941 232.543 415.941 232.543 415.941 232.543C416.415 233.749 415.529 235.043 414.233 235.043H388.81C388.057 235.043 387.365 234.575 387.101 233.876C387.101 233.875 387.1 233.874 387.1 233.873L370.59 191.475C370.59 191.475 370.59 191.474 370.59 191.474Z" fill="#FFCF2D"/>
<path fill-rule="evenodd" clip-rule="evenodd" d="M444.12 107.332L459.476 160.758L459.013 160.888C456.592 161.569 454.025 161.942 451.393 161.942C436.006 161.942 423.542 149.509 423.542 134.16C423.542 121.501 432.041 110.803 443.659 107.465L444.12 107.332ZM443.465 108.52C432.483 111.891 424.501 122.105 424.501 134.16C424.501 148.982 436.535 160.986 451.393 160.986C453.767 160.986 456.087 160.672 458.288 160.094L443.465 108.52Z" fill="#FFCF2D"/>
<path fill-rule="evenodd" clip-rule="evenodd" d="M450.916 171.197V161.464H451.874V171.197H450.916Z" fill="#FFCF2D"/>
<path d="M451.393 157.289C464.199 157.289 474.58 146.934 474.58 134.159C474.58 121.385 464.199 111.029 451.393 111.029C438.587 111.029 428.205 121.385 428.205 134.159C428.205 146.934 438.587 157.289 451.393 157.289Z" fill="white"/>
<path fill-rule="evenodd" clip-rule="evenodd" d="M451.394 111.508C438.853 111.508 428.686 121.649 428.686 134.16C428.686 146.67 438.853 156.812 451.394 156.812C463.936 156.812 474.103 146.67 474.103 134.16C474.103 121.649 463.936 111.508 451.394 111.508ZM427.728 134.16C427.728 121.121 438.323 110.552 451.394 110.552C464.465 110.552 475.061 121.121 475.061 134.16C475.061 147.198 464.465 157.768 451.394 157.768C438.323 157.768 427.728 147.198 427.728 134.16Z" fill="#3FB1B5"/>
<path d="M461.086 171.133H441.779L451.361 166.338L461.086 171.133Z" fill="white"/>
<path fill-rule="evenodd" clip-rule="evenodd" d="M451.359 165.805L463.137 171.611H439.756L451.359 165.805ZM451.363 166.872L443.803 170.656H459.036L451.363 166.872Z" fill="#FFCF2D"/>
<path fill-rule="evenodd" clip-rule="evenodd" d="M316.581 170.719H486.239V453.998H476.546V432.971C476.546 428.663 473.04 425.165 468.721 425.165H334.003C329.685 425.165 326.178 428.663 326.178 432.971V453.998H316.581V170.719ZM317.539 171.675V453.042H325.22V432.971C325.22 428.135 329.155 424.209 334.003 424.209H468.721C473.569 424.209 477.504 428.135 477.504 432.971V453.042H485.281V171.675H317.539Z" fill="#9A3B82"/>
<path fill-rule="evenodd" clip-rule="evenodd" d="M328.861 369.125C327.275 369.125 326.003 370.407 326.003 371.976V413.537C326.003 415.119 327.288 416.388 328.861 416.388H473.64C475.213 416.388 476.498 415.119 476.498 413.537V371.976C476.498 370.394 475.213 369.125 473.64 369.125H328.861ZM325.044 371.976C325.044 369.882 326.743 368.169 328.861 368.169H473.64C475.739 368.169 477.457 369.863 477.457 371.976V413.537C477.457 415.65 475.739 417.344 473.64 417.344H328.861C326.762 417.344 325.044 415.65 325.044 413.537V371.976Z" fill="#3FB1B5"/>
<path d="M408.883 132.424V171.197H395.277L408.883 132.424Z" fill="#9A3B82"/>
<path d="M408.883 132.423L408.787 132.71L395.357 171.196H332.917L346.347 132.71L346.778 131.483C348.79 128.6 354.363 126.497 361.007 126.386C361.118 126.386 361.214 126.386 361.326 126.386C361.438 126.386 361.534 126.386 361.645 126.386C369.407 126.386 376.321 129.078 377.583 132.614C378.829 129.078 385.44 126.386 393.201 126.386C400.802 126.386 407.462 128.982 408.883 132.423Z" fill="white"/>
<path fill-rule="evenodd" clip-rule="evenodd" d="M361.004 125.908H361.647C365.578 125.908 369.308 126.589 372.227 127.729C374.649 128.675 376.598 129.97 377.579 131.526C378.534 129.974 380.41 128.678 382.771 127.731C385.615 126.589 389.27 125.908 393.202 125.908C397.053 125.908 400.678 126.565 403.534 127.669C406.363 128.762 408.54 130.336 409.327 132.241L409.395 132.406L409.242 132.864L395.699 171.674H332.244L345.895 132.553L346.349 131.264L346.386 131.211C347.472 129.655 349.472 128.363 351.993 127.446C354.525 126.526 357.632 125.965 361 125.908L361.004 125.908ZM361.012 126.864C357.738 126.919 354.739 127.465 352.321 128.344C349.922 129.217 348.146 130.398 347.209 131.705L346.8 132.868L333.592 170.719H395.017L408.334 132.559L408.336 132.553L408.371 132.447C407.678 130.971 405.849 129.588 403.188 128.56C400.458 127.505 396.952 126.864 393.202 126.864C389.373 126.864 385.842 127.529 383.129 128.618C380.389 129.717 378.589 131.203 378.036 132.773L377.587 134.048L377.133 132.775C376.575 131.21 374.702 129.722 371.878 128.619C369.085 127.529 365.476 126.864 361.647 126.864H361.012Z" fill="#FFCF2D"/>
<path fill-rule="evenodd" clip-rule="evenodd" d="M377.728 132.165C377.978 132.254 378.107 132.527 378.018 132.776L364.46 170.561C364.371 170.81 364.097 170.939 363.848 170.85C363.598 170.761 363.469 170.488 363.558 170.239L377.116 132.454C377.205 132.205 377.479 132.076 377.728 132.165Z" fill="#FFCF2D"/>
<path d="M363.977 170.719H332.917C334.066 167.135 340.518 164.379 348.279 164.379C356.072 164.379 362.827 167.135 363.977 170.719Z" fill="#FFCF2D"/>
<path d="M395.278 170.719H364.217C365.367 167.135 371.819 164.379 379.58 164.379C387.373 164.379 394.128 167.135 395.278 170.719Z" fill="#FFCF2D"/>
<path fill-rule="evenodd" clip-rule="evenodd" d="M393.121 379.176C392.126 379.176 391.332 379.979 391.332 380.96C391.332 381.224 391.118 381.438 390.853 381.438C390.589 381.438 390.374 381.224 390.374 380.96C390.374 379.455 391.592 378.22 393.121 378.22H410.064C411.572 378.22 412.811 379.435 412.811 380.96C412.811 381.224 412.597 381.438 412.332 381.438C412.067 381.438 411.853 381.224 411.853 380.96C411.853 379.967 411.048 379.176 410.064 379.176H393.121Z" fill="#9A3B82"/>
<path fill-rule="evenodd" clip-rule="evenodd" d="M316.581 297.951C316.581 297.687 316.795 297.473 317.06 297.473H485.76C486.025 297.473 486.239 297.687 486.239 297.951C486.239 298.215 486.025 298.428 485.76 298.428H317.06C316.795 298.428 316.581 298.215 316.581 297.951Z" fill="#9A3B82"/>
<path fill-rule="evenodd" clip-rule="evenodd" d="M316.581 234.565C316.581 234.301 316.795 234.087 317.06 234.087H485.76C486.025 234.087 486.239 234.301 486.239 234.565C486.239 234.829 486.025 235.043 485.76 235.043H317.06C316.795 235.043 316.581 234.829 316.581 234.565Z" fill="#9A3B82"/>
<path fill-rule="evenodd" clip-rule="evenodd" d="M316.581 361.319C316.581 361.055 316.795 360.841 317.06 360.841H485.76C486.025 360.841 486.239 361.055 486.239 361.319C486.239 361.583 486.025 361.797 485.76 361.797H317.06C316.795 361.797 316.581 361.583 316.581 361.319Z" fill="#9A3B82"/>
<path fill-rule="evenodd" clip-rule="evenodd" d="M337.978 111.551C338.228 111.639 338.359 111.911 338.272 112.16L317.735 170.72H485.42L506.068 111.845C506.156 111.596 506.429 111.464 506.679 111.551C506.928 111.639 507.06 111.911 506.973 112.16L486.212 171.355C486.145 171.547 485.964 171.675 485.76 171.675H317.06C316.904 171.675 316.759 171.6 316.669 171.474C316.579 171.348 316.556 171.186 316.607 171.04L337.368 111.845C337.455 111.596 337.728 111.464 337.978 111.551Z" fill="#9A3B82"/>
<path d="M145.834 432.94V450.272C145.834 452.072 147.288 453.522 149.092 453.522H192.529C192.529 453.522 192.785 445.477 186.173 443.231C174.947 439.424 169.709 432.94 169.709 432.94H145.834Z" fill="white"/>
<path fill-rule="evenodd" clip-rule="evenodd" d="M145.835 432.463H169.938L170.082 432.641L170.082 432.641L170.084 432.643C170.086 432.646 170.089 432.65 170.094 432.655C170.103 432.666 170.117 432.683 170.136 432.706C170.174 432.751 170.234 432.819 170.313 432.909C170.473 433.087 170.715 433.349 171.042 433.676C171.695 434.33 172.686 435.246 174.025 436.281C176.702 438.35 180.772 440.895 186.327 442.779L186.328 442.779C189.825 443.967 191.495 446.693 192.285 449.068C192.68 450.256 192.861 451.368 192.942 452.182C192.983 452.59 193 452.925 193.006 453.159C193.009 453.277 193.01 453.369 193.009 453.433C193.009 453.465 193.009 453.49 193.009 453.508C193.008 453.516 193.008 453.523 193.008 453.528L193.008 453.534L193.008 453.537C193.008 453.537 193.008 453.537 192.529 453.522L193.008 453.537L192.993 454H149.092C147.023 454 145.355 452.336 145.355 450.272V432.941H145.835V432.463ZM146.314 433.419V450.272C146.314 451.808 147.552 453.044 149.092 453.044H192.044C192.036 452.843 192.02 452.583 191.989 452.278C191.912 451.513 191.743 450.474 191.376 449.369C190.641 447.161 189.133 444.742 186.019 443.684C180.348 441.761 176.186 439.16 173.438 437.036C172.064 435.974 171.043 435.031 170.363 434.351C170.023 434.01 169.769 433.736 169.598 433.545C169.556 433.498 169.519 433.455 169.487 433.419H146.314Z" fill="#FE5244"/>
<path fill-rule="evenodd" clip-rule="evenodd" d="M175.041 434.706C175.485 434.763 175.949 434.921 176.308 435.279C176.65 435.62 176.846 436.013 176.89 436.441C176.933 436.861 176.824 437.271 176.638 437.648C176.271 438.389 175.554 439.103 174.765 439.724C173.181 440.969 171.085 442.006 170.125 442.274L169.868 441.353C170.681 441.127 172.665 440.157 174.171 438.973C174.927 438.379 175.508 437.772 175.779 437.225C175.911 436.957 175.956 436.73 175.937 436.538C175.918 436.354 175.835 436.159 175.63 435.955C175.47 435.795 175.233 435.694 174.919 435.654C174.604 435.614 174.247 435.639 173.897 435.699C173.549 435.759 173.229 435.849 172.993 435.926C172.876 435.964 172.782 435.998 172.717 436.022C172.685 436.034 172.661 436.043 172.645 436.05C172.637 436.053 172.631 436.055 172.628 436.056L172.624 436.058C172.624 436.058 172.624 436.058 172.44 435.617C172.256 435.176 172.256 435.176 172.256 435.176L172.257 435.175L172.259 435.174L172.266 435.171C172.272 435.169 172.281 435.165 172.291 435.161C172.312 435.153 172.342 435.141 172.38 435.127C172.456 435.098 172.565 435.06 172.697 435.017C172.961 434.931 173.328 434.827 173.734 434.758C174.136 434.688 174.597 434.649 175.041 434.706Z" fill="#FE5244"/>
<path fill-rule="evenodd" clip-rule="evenodd" d="M182.338 437.474C181.174 436.538 179.774 437.029 178.84 437.568C178.351 437.851 177.928 438.179 177.63 438.433C177.48 438.561 177.36 438.673 177.276 438.752C177.234 438.792 177.202 438.825 177.179 438.847C177.167 438.859 177.159 438.868 177.152 438.874L177.145 438.882L177.142 438.884L177.141 438.885C177.141 438.885 177.141 438.886 177.487 439.217C177.832 439.548 177.832 439.548 177.832 439.548L177.833 439.547L177.837 439.543C177.841 439.539 177.848 439.532 177.857 439.523C177.875 439.505 177.902 439.478 177.939 439.443C178.012 439.373 178.119 439.274 178.253 439.159C178.524 438.928 178.898 438.639 179.32 438.396C180.206 437.884 181.081 437.69 181.737 438.219L181.738 438.22C181.966 438.401 182.063 438.58 182.097 438.748C182.133 438.923 182.11 439.139 182.002 439.404C181.781 439.948 181.253 440.576 180.542 441.205C179.843 441.824 179.011 442.405 178.244 442.862C177.468 443.324 176.796 443.636 176.416 443.742L176.673 444.663C177.179 444.522 177.938 444.157 178.735 443.683C179.542 443.202 180.425 442.587 181.178 441.92C181.921 441.262 182.584 440.515 182.89 439.763C183.046 439.38 183.12 438.969 183.036 438.558C182.951 438.14 182.713 437.774 182.338 437.474Z" fill="#FE5244"/>
<path d="M171.05 434.342L145.834 442.164V432.94H169.725C169.725 432.94 170.156 433.482 171.05 434.342Z" fill="#FE5244"/>
<path d="M200.289 432.94V450.272C200.289 452.072 201.742 453.522 203.547 453.522H246.984C246.984 453.522 247.239 445.477 240.628 443.231C229.401 439.424 224.163 432.94 224.163 432.94H200.289Z" fill="white"/>
<path fill-rule="evenodd" clip-rule="evenodd" d="M200.29 432.463H224.393L224.537 432.641L224.537 432.641L224.539 432.643C224.541 432.646 224.544 432.65 224.549 432.655C224.558 432.666 224.572 432.683 224.591 432.706C224.63 432.751 224.689 432.819 224.768 432.909C224.928 433.087 225.17 433.349 225.497 433.676C226.151 434.33 227.141 435.246 228.48 436.281C231.157 438.35 235.227 440.895 240.783 442.779L240.783 442.779C244.28 443.967 245.95 446.693 246.74 449.068C247.135 450.256 247.316 451.368 247.397 452.182C247.438 452.59 247.455 452.925 247.461 453.159C247.464 453.277 247.465 453.369 247.464 453.433C247.464 453.465 247.464 453.49 247.464 453.508C247.464 453.516 247.463 453.523 247.463 453.528L247.463 453.534L247.463 453.537C247.463 453.537 247.463 453.537 246.984 453.522L247.463 453.537L247.448 454H203.547C201.478 454 199.811 452.336 199.811 450.272V432.941H200.29V432.463ZM200.769 433.419V450.272C200.769 451.808 202.007 453.044 203.547 453.044H246.499C246.491 452.843 246.475 452.583 246.444 452.278C246.367 451.513 246.198 450.474 245.831 449.369C245.096 447.161 243.588 444.742 240.474 443.684C234.803 441.761 230.641 439.16 227.893 437.036C226.519 435.974 225.498 435.031 224.818 434.351C224.479 434.01 224.224 433.736 224.053 433.545C224.011 433.498 223.974 433.455 223.942 433.419H200.769Z" fill="#FE5244"/>
<path fill-rule="evenodd" clip-rule="evenodd" d="M229.496 434.706C229.94 434.763 230.404 434.921 230.763 435.279C231.105 435.62 231.301 436.013 231.345 436.441C231.388 436.861 231.279 437.271 231.093 437.648C230.726 438.389 230.009 439.103 229.22 439.724C227.636 440.969 225.54 442.006 224.58 442.274L224.323 441.353C225.136 441.127 227.12 440.157 228.627 438.973C229.382 438.379 229.963 437.772 230.234 437.225C230.366 436.957 230.411 436.73 230.392 436.538C230.373 436.354 230.291 436.159 230.085 435.955C229.925 435.795 229.689 435.694 229.374 435.654C229.059 435.614 228.702 435.639 228.352 435.699C228.005 435.759 227.684 435.849 227.448 435.926C227.331 435.964 227.237 435.998 227.173 436.022C227.14 436.034 227.116 436.043 227.1 436.05C227.092 436.053 227.086 436.055 227.083 436.056L227.079 436.058C227.079 436.058 227.079 436.058 226.895 435.617C226.711 435.176 226.711 435.176 226.711 435.176L226.712 435.175L226.714 435.174L226.721 435.171C226.727 435.169 226.736 435.165 226.746 435.161C226.767 435.153 226.797 435.141 226.836 435.127C226.912 435.098 227.02 435.06 227.152 435.017C227.417 434.931 227.784 434.827 228.189 434.758C228.591 434.688 229.052 434.649 229.496 434.706Z" fill="#FE5244"/>
<path fill-rule="evenodd" clip-rule="evenodd" d="M236.793 437.474C235.629 436.538 234.229 437.029 233.295 437.568C232.806 437.851 232.383 438.179 232.085 438.433C231.935 438.561 231.815 438.673 231.731 438.752C231.689 438.792 231.657 438.825 231.634 438.847C231.622 438.859 231.614 438.868 231.607 438.874L231.6 438.882L231.597 438.884L231.596 438.885C231.596 438.885 231.596 438.886 231.942 439.217C232.287 439.548 232.287 439.548 232.287 439.548L232.288 439.547L232.292 439.543C232.296 439.539 232.303 439.532 232.312 439.523C232.33 439.505 232.357 439.478 232.394 439.443C232.467 439.373 232.574 439.274 232.708 439.159C232.979 438.928 233.353 438.639 233.775 438.396C234.661 437.884 235.536 437.69 236.192 438.219L236.193 438.22C236.421 438.401 236.518 438.58 236.552 438.748C236.588 438.923 236.565 439.139 236.457 439.404C236.236 439.948 235.708 440.576 234.997 441.205C234.298 441.824 233.466 442.405 232.699 442.862C231.923 443.324 231.251 443.636 230.871 443.742L231.128 444.663C231.634 444.522 232.393 444.157 233.19 443.683C233.997 443.202 234.88 442.587 235.633 441.92C236.376 441.262 237.039 440.515 237.345 439.763C237.501 439.38 237.575 438.969 237.491 438.558C237.406 438.14 237.168 437.774 236.793 437.474Z" fill="#FE5244"/>
<path d="M225.505 434.342L200.289 442.164V432.94H224.179C224.179 432.94 224.611 433.482 225.505 434.342Z" fill="#FE5244"/>
<path d="M157.576 260.422L141.846 424.69H174.743L191.271 345.089L198.026 362.054V424.69H232.28V354.455L214.011 260.422H157.576Z" fill="#3FB1B5"/>
<path fill-rule="evenodd" clip-rule="evenodd" d="M158.936 424.631L174.234 299.821L175.185 299.937L159.887 424.747L158.936 424.631Z" fill="#9A3B82"/>
<path fill-rule="evenodd" clip-rule="evenodd" d="M193.556 268.271L215.033 354.397V424.69H214.075V354.514L192.626 268.502L193.556 268.271Z" fill="#9A3B82"/>
<path fill-rule="evenodd" clip-rule="evenodd" d="M177.495 302.496C177.495 302.496 177.495 302.496 177.495 302.496L197.999 361.898L197.093 362.209L176.589 302.807C175.953 300.962 174.204 299.72 172.235 299.72V298.765C174.61 298.765 176.725 300.263 177.495 302.496Z" fill="white"/>
<path d="M154.973 287.582L157.576 260.422H214.012L215.625 268.769L154.973 287.582Z" fill="#9A3B82"/>
<path d="M232.344 432.941H197.898C196.605 432.941 195.551 431.89 195.551 430.599V427.031C195.551 425.741 196.605 424.689 197.898 424.689H232.344C233.638 424.689 234.692 425.741 234.692 427.031V430.599C234.676 431.89 233.638 432.941 232.344 432.941Z" fill="#9A3B82"/>
<path d="M175.333 432.941H140.887C139.593 432.941 138.539 431.89 138.539 430.599V427.031C138.539 425.741 139.593 424.689 140.887 424.689H175.333C176.626 424.689 177.68 425.741 177.68 427.031V430.599C177.664 431.89 176.626 432.941 175.333 432.941Z" fill="#9A3B82"/>
<path d="M267.266 265.232L278.062 305.518L224.245 319.871L213.433 279.553C213.098 278.294 212.284 277.307 211.246 276.701C210.208 276.096 208.93 275.889 207.668 276.223C205.161 276.893 203.66 279.473 204.331 281.974L215.142 322.292L213.96 322.611L203.165 282.325C202.303 279.123 204.155 275.841 207.317 274.885C207.381 274.869 207.445 274.854 207.509 274.838L259.761 260.899C263.035 260.039 266.388 261.982 267.266 265.232Z" fill="#66B0F0"/>
<path d="M214.631 279.282L225.426 319.568L224.245 319.887L213.433 279.569C213.098 278.31 212.284 277.323 211.246 276.717C210.208 276.112 208.93 275.905 207.668 276.24C205.161 276.909 203.66 279.489 204.331 281.99L215.142 322.308L213.96 322.627L203.165 282.341C202.303 279.139 204.155 275.857 207.317 274.901C210.527 274.153 213.769 276.08 214.631 279.282Z" fill="#9A3B82"/>
<path d="M213.434 279.553L223.575 317.402L214.472 319.824L204.331 281.975C203.661 279.474 205.146 276.893 207.669 276.224C208.931 275.889 210.208 276.096 211.246 276.702C212.284 277.307 213.099 278.295 213.434 279.553Z" fill="white"/>
<path d="M267.426 286.578L242.945 294.988L223.622 260.421H148.726C135.998 260.421 126.48 248.744 129.083 236.319L136.876 198.98C139.32 187.287 149.652 178.908 161.613 178.908H212.827C225.235 178.908 235.807 187.893 237.771 200.111L245.484 236.462L267.426 286.578Z" fill="#FFCF2D"/>
<path fill-rule="evenodd" clip-rule="evenodd" d="M137.346 199.078C137.346 199.078 137.346 199.078 137.346 199.078L129.553 236.417L129.553 236.417C127.012 248.545 136.302 259.943 148.726 259.943H223.904L243.169 294.407L266.78 286.295L245.026 236.609L237.3 200.198L237.298 200.187C235.371 188.201 225 179.386 212.827 179.386H161.613C149.879 179.386 139.743 187.607 137.346 199.078ZM136.408 198.883C138.897 186.969 149.425 178.431 161.613 178.431H212.827C225.467 178.431 236.236 187.58 238.243 200.024L245.943 236.316L268.073 286.861L242.722 295.571L223.341 260.899H148.726C135.695 260.899 125.949 248.944 128.615 236.222L136.408 198.883Z" fill="white"/>
<path d="M144.734 260.023C135.919 258.255 129.371 250.768 128.701 241.942C129.371 241.481 130.122 241.082 130.92 240.796C136.717 238.661 143.345 242.165 145.756 248.617C147.241 252.663 146.73 256.901 144.734 260.023Z" fill="white"/>
<path d="M200.498 156.511V178.924H175.698L181.415 164.014L200.498 156.511Z" fill="#E57281"/>
<path d="M206.199 147.081C206.183 147.081 206.151 147.097 206.135 147.097L198.773 149.04C196.138 149.741 194.11 151.684 193.248 154.138H190.421C188.633 154.138 187.18 155.587 187.18 157.371V157.419C187.18 159.108 188.473 160.494 190.134 160.637C190.118 160.653 190.118 160.653 190.118 160.653C190.118 160.653 188.809 166.866 181.159 164.779C181.159 164.779 181.463 148.435 181.782 143.353C182.053 139.164 204.331 131.231 206.391 134.608C208.211 137.603 206.103 139.004 204.315 139.626C207.477 138.957 213.449 138.065 214.056 140.725C214.759 143.815 208.451 146.491 206.199 147.081Z" fill="#9A3B82"/>
<path d="M207.637 158.534H206.854L207.078 162.357C207.237 165.097 205.034 167.423 202.287 167.423H198.838C195.516 167.423 192.817 164.731 192.817 161.417V160.669H190.438C188.649 160.669 187.196 159.219 187.196 157.435V157.387C187.196 155.603 188.649 154.153 190.438 154.153H193.264C194.127 151.7 196.155 149.741 198.79 149.056L206.152 147.112L208.675 157.196C208.93 157.833 208.323 158.534 207.637 158.534Z" fill="#E57281"/>
<path fill-rule="evenodd" clip-rule="evenodd" d="M193.607 161.324C193.827 161.345 193.988 161.539 193.967 161.758C193.814 163.356 194.533 164.737 195.707 165.734C196.886 166.736 198.502 167.328 200.069 167.328C200.29 167.328 200.468 167.506 200.468 167.726C200.468 167.946 200.29 168.124 200.069 168.124C198.314 168.124 196.514 167.466 195.189 166.341C193.859 165.211 192.99 163.59 193.172 161.683C193.193 161.464 193.388 161.303 193.607 161.324Z" fill="#9A3B82"/>
<path fill-rule="evenodd" clip-rule="evenodd" d="M189.625 155.73C189.625 155.51 189.803 155.332 190.024 155.332C191.49 155.332 192.675 156.514 192.675 157.976C192.675 158.196 192.496 158.375 192.275 158.375C192.055 158.375 191.876 158.196 191.876 157.976C191.876 156.954 191.049 156.129 190.024 156.129C189.803 156.129 189.625 155.95 189.625 155.73Z" fill="#9A3B82"/>
<path d="M204.923 155.699C205.249 155.699 205.514 155.15 205.514 154.473C205.514 153.795 205.249 153.246 204.923 153.246C204.597 153.246 204.332 153.795 204.332 154.473C204.332 155.15 204.597 155.699 204.923 155.699Z" fill="#9A3B82"/>
<path fill-rule="evenodd" clip-rule="evenodd" d="M202.368 151.892L202.126 151.575C201.95 151.709 201.917 151.959 202.051 152.134C202.185 152.308 202.435 152.342 202.61 152.208L202.613 152.207C202.615 152.205 202.62 152.201 202.626 152.197C202.639 152.188 202.658 152.173 202.685 152.155C202.739 152.117 202.821 152.063 202.928 151.997C203.144 151.864 203.461 151.686 203.864 151.507C204.67 151.148 205.808 150.793 207.143 150.793C207.363 150.793 207.542 150.614 207.542 150.394C207.542 150.174 207.363 149.996 207.143 149.996C205.667 149.996 204.417 150.389 203.539 150.779C203.099 150.975 202.75 151.171 202.509 151.319C202.389 151.393 202.295 151.455 202.23 151.5C202.198 151.522 202.173 151.54 202.155 151.553C202.147 151.56 202.14 151.565 202.135 151.568L202.129 151.573L202.127 151.574L202.126 151.575L202.126 151.575C202.126 151.575 202.126 151.575 202.368 151.892Z" fill="#9A3B82"/>
<path d="M194.766 270.632C194.766 270.632 214.328 271.476 221.211 255.818L217.57 249.175L206.695 253.348L194.766 270.632Z" fill="white"/>
<path fill-rule="evenodd" clip-rule="evenodd" d="M217.789 248.579L221.745 255.795L221.65 256.01C218.133 264.012 211.376 267.785 205.547 269.555C202.631 270.44 199.937 270.829 197.971 270.996C196.987 271.08 196.185 271.109 195.626 271.116C195.347 271.12 195.129 271.119 194.979 271.116C194.905 271.115 194.847 271.114 194.808 271.112C194.788 271.112 194.773 271.111 194.762 271.111L194.75 271.11L194.746 271.11C194.745 271.11 194.745 271.11 194.766 270.633L194.745 271.11L193.88 271.073L206.385 252.956L217.789 248.579ZM195.674 270.16C196.209 270.151 196.967 270.122 197.889 270.044C199.807 269.88 202.432 269.501 205.268 268.64C210.888 266.934 217.286 263.35 220.677 255.84L217.351 249.771L207.005 253.742L195.674 270.16Z" fill="#FE5244"/>
<path d="M210.433 174.815C209.49 174.895 208.628 175.309 207.989 175.946C207.287 176.647 206.84 177.619 206.84 178.702V257.188C206.84 264.675 200.755 270.745 193.25 270.745H163.083C154.971 270.745 148.711 263.72 149.573 255.739V255.723L160.432 181.219C160.975 177.539 164.121 174.815 167.858 174.815H210.433Z" fill="#FE5244"/>
<path fill-rule="evenodd" clip-rule="evenodd" d="M160.906 181.288C160.906 181.288 160.906 181.288 160.906 181.288L150.052 255.757V255.764L150.049 255.789C149.217 263.489 155.257 270.266 163.083 270.266H193.249C200.49 270.266 206.36 264.411 206.36 257.188V178.702C206.36 177.484 206.863 176.393 207.65 175.608C207.762 175.497 207.879 175.391 208.002 175.293H167.858C164.36 175.293 161.415 177.842 160.906 181.288ZM210.432 174.815V174.337H167.858C163.882 174.337 160.535 177.236 159.958 181.149L149.094 255.688V255.713C148.217 263.964 154.693 271.222 163.083 271.222H193.249C201.019 271.222 207.318 264.939 207.318 257.188V178.702C207.318 177.753 207.709 176.901 208.328 176.284C208.888 175.725 209.645 175.361 210.473 175.291L210.432 174.815Z" fill="#FE5244"/>
<path d="M207.397 174.815C206.455 174.894 205.593 175.309 204.954 175.946C204.363 176.535 203.964 177.3 203.852 178.16C203.836 178.335 203.82 178.51 203.82 178.686L203.182 184.691L195.516 257.172C195.516 264.659 189.432 270.728 181.926 270.728H163.098C154.986 270.728 148.726 263.703 149.588 255.722V255.706L154.491 222.031L160.447 181.203C160.495 180.852 160.575 180.502 160.671 180.151C161.597 177.013 164.504 174.799 167.857 174.799H207.397V174.815Z" fill="white"/>
<path fill-rule="evenodd" clip-rule="evenodd" d="M161.129 180.282C161.037 180.619 160.963 180.946 160.919 181.268L160.919 181.27L154.962 222.1L150.065 255.741V255.748L150.062 255.774C149.23 263.474 155.27 270.25 163.096 270.25H181.924C189.165 270.25 195.034 264.395 195.034 257.172V257.147L202.702 184.641L202.702 184.641L203.339 178.66C203.34 178.472 203.357 178.288 203.372 178.126L203.373 178.108L203.374 178.099C203.501 177.128 203.951 176.268 204.613 175.608C204.73 175.491 204.855 175.38 204.985 175.277H167.855C164.717 175.277 161.997 177.348 161.129 180.282ZM160.209 180.017C161.194 176.677 164.287 174.321 167.855 174.321H207.874V175.254L207.435 175.291C206.608 175.361 205.851 175.725 205.29 176.284C204.772 176.801 204.425 177.467 204.326 178.213C204.31 178.388 204.297 178.539 204.297 178.686V178.711L203.655 184.742L203.655 184.742L195.993 257.198C195.979 264.937 189.685 271.206 181.924 271.206H163.096C154.705 271.206 148.23 263.948 149.106 255.697V255.672L154.014 221.962L159.97 181.138C159.97 181.138 159.97 181.137 159.97 181.136C160.022 180.759 160.107 180.388 160.206 180.026L160.207 180.021L160.209 180.017Z" fill="#FE5244"/>
<path d="M200.675 190.443L197.817 211.836C196.874 216.217 193.457 218.559 188.507 219.355L154.651 224.262L159.586 190.427H200.675V190.443Z" fill="#FFCF2D"/>
<path d="M206.184 174.815H205.338C203.805 174.799 202.463 175.882 202.16 177.395L197.177 209.462C196.235 213.843 192.355 216.981 187.867 216.981H156.711C152.942 216.981 150.132 213.508 150.946 209.828L156.95 182.62C157.957 178.064 162.013 174.815 166.692 174.815H206.184Z" fill="#FE5244"/>
<path fill-rule="evenodd" clip-rule="evenodd" d="M205.341 174.337H206.185V175.293H205.275C204.001 175.307 202.891 176.215 202.632 177.48L197.65 209.549L197.647 209.563C196.657 214.163 192.582 217.459 187.868 217.459H156.712C152.638 217.459 149.598 213.705 150.479 209.726L156.483 182.518C157.538 177.743 161.789 174.337 166.693 174.337H205.269C205.293 174.337 205.317 174.337 205.341 174.337ZM202.832 175.293H166.693C162.238 175.293 158.377 178.387 157.419 182.723C157.419 182.723 157.419 182.723 157.419 182.723L151.415 209.932C150.666 213.312 153.248 216.503 156.712 216.503H187.868C192.124 216.503 195.807 213.53 196.707 209.375L201.689 177.312L201.691 177.302C201.851 176.503 202.263 175.809 202.832 175.293Z" fill="#FE5244"/>
<path d="M180.505 225.902L188.442 177.492C188.602 176.52 189.448 175.787 190.438 175.787C191.684 175.787 192.642 176.902 192.434 178.145L184.498 226.555C184.338 227.527 183.492 228.26 182.502 228.26C181.256 228.26 180.298 227.145 180.505 225.902Z" fill="white"/>
<path fill-rule="evenodd" clip-rule="evenodd" d="M188.916 177.568C188.916 177.568 188.916 177.568 188.916 177.568L180.979 225.979L180.979 225.98C180.82 226.931 181.552 227.781 182.503 227.781C183.253 227.781 183.904 227.223 184.026 226.477C184.026 226.478 184.026 226.477 184.026 226.477L191.963 178.067L191.963 178.066C192.122 177.115 191.39 176.264 190.44 176.264C189.689 176.264 189.039 176.823 188.916 177.568ZM187.971 177.414C188.167 176.216 189.21 175.309 190.44 175.309C191.98 175.309 193.164 176.688 192.908 178.222C192.908 178.222 192.908 178.222 192.908 178.223L184.972 226.632C184.775 227.83 183.732 228.737 182.503 228.737C180.962 228.737 179.778 227.358 180.034 225.824C180.034 225.824 180.034 225.823 180.034 225.823L187.971 177.414L187.971 177.414Z" fill="#FE5244"/>
<path d="M162.763 225.902L170.7 177.492C170.859 176.52 171.706 175.787 172.696 175.787C173.941 175.787 174.9 176.902 174.692 178.145L166.755 226.555C166.595 227.527 165.749 228.26 164.759 228.26C163.513 228.26 162.555 227.145 162.763 225.902Z" fill="white"/>
<path fill-rule="evenodd" clip-rule="evenodd" d="M171.173 177.568C171.173 177.568 171.173 177.568 171.173 177.568L163.236 225.979L163.236 225.98C163.077 226.931 163.809 227.781 164.76 227.781C165.51 227.781 166.16 227.223 166.283 226.477C166.283 226.478 166.283 226.477 166.283 226.477L174.22 178.067L174.22 178.066C174.379 177.115 173.647 176.264 172.697 176.264C171.946 176.264 171.296 176.823 171.173 177.568ZM170.228 177.414C170.424 176.216 171.467 175.309 172.697 175.309C174.237 175.309 175.421 176.688 175.165 178.222C175.165 178.222 175.165 178.222 175.165 178.223L167.229 226.632C167.032 227.83 165.989 228.737 164.76 228.737C163.219 228.737 162.035 227.358 162.291 225.824C162.291 225.824 162.291 225.823 162.291 225.823L170.228 177.414L170.228 177.414Z" fill="#FE5244"/>
<path d="M214.664 178.941L206.855 178.973V178.702C206.855 177.619 207.286 176.647 208.005 175.946C208.644 175.309 209.49 174.895 210.448 174.815H211.087C213.051 174.975 214.6 176.631 214.664 178.941Z" fill="white"/>
<path fill-rule="evenodd" clip-rule="evenodd" d="M210.428 174.337H211.106L211.126 174.338C213.363 174.52 215.073 176.404 215.143 178.927L215.156 179.417L206.376 179.452V178.702C206.376 177.49 206.859 176.396 207.668 175.606C208.384 174.893 209.334 174.428 210.408 174.339L210.428 174.337ZM210.469 175.293C209.635 175.367 208.901 175.728 208.344 176.284L208.342 176.286L208.34 176.288C207.759 176.854 207.391 177.625 207.34 178.493L214.146 178.465C213.905 176.645 212.615 175.427 211.067 175.293H210.469Z" fill="#FE5244"/>
<path d="M264.502 287.581L271.082 304.514C272.136 307.238 270.603 310.265 267.792 311.045L253.34 314.996C252.461 315.235 251.535 315.028 250.848 314.438L249.379 313.164L252.381 312.368C253.707 312.017 254.601 310.791 254.537 309.421L254.202 306.044C254.138 304.53 252.908 303.32 251.391 303.272H251.551C249.714 303.208 247.926 302.077 247.207 300.389L244.908 294.287L264.502 287.581Z" fill="#E57281"/>
<path fill-rule="evenodd" clip-rule="evenodd" d="M244.385 294.501C244.628 294.398 244.91 294.511 245.013 294.754L247.472 300.537C247.472 300.537 247.472 300.537 247.472 300.537C248.119 302.056 249.584 303.072 251.231 303.129C252.998 303.185 254.429 304.594 254.505 306.357C254.505 306.358 254.505 306.358 254.505 306.358L254.68 310.052C254.756 311.675 253.684 312.923 252.169 313.324C252.169 313.324 252.169 313.324 252.168 313.324L249.807 313.96C249.552 314.029 249.289 313.879 249.22 313.624C249.151 313.369 249.302 313.107 249.557 313.038L251.922 312.4L251.923 312.4C253.059 312.1 253.775 311.213 253.723 310.096L253.547 306.4L253.547 306.399C253.494 305.136 252.467 304.124 251.2 304.084L251.199 304.084C249.173 304.014 247.381 302.767 246.59 300.91L244.131 295.128C244.028 294.885 244.141 294.604 244.385 294.501Z" fill="white"/>
<path fill-rule="evenodd" clip-rule="evenodd" d="M259.928 304.514C260.193 304.502 260.417 304.705 260.429 304.969L260.653 309.685C260.743 311.662 259.446 313.425 257.534 313.928C257.278 313.996 257.016 313.843 256.949 313.588C256.881 313.333 257.034 313.072 257.289 313.004C258.763 312.616 259.765 311.257 259.696 309.729C259.696 309.729 259.696 309.729 259.696 309.728L259.472 305.014C259.46 304.751 259.664 304.527 259.928 304.514Z" fill="white"/>
<path fill-rule="evenodd" clip-rule="evenodd" d="M266.044 302.938C266.309 302.926 266.533 303.129 266.546 303.393L266.769 308.109C266.859 310.085 265.562 311.848 263.65 312.352C263.395 312.42 263.132 312.267 263.065 312.012C262.997 311.757 263.15 311.495 263.406 311.428C264.88 311.04 265.881 309.681 265.812 308.153C265.812 308.153 265.812 308.153 265.812 308.152L265.589 303.438C265.576 303.174 265.78 302.951 266.044 302.938Z" fill="white"/>
<path fill-rule="evenodd" clip-rule="evenodd" d="M212.212 237.237L208.347 217.07L209.288 216.891L213.153 237.058C213.798 240.449 214.994 243.73 216.678 246.744L216.678 246.745L243.152 294.406L267.253 286.126L267.565 287.03L242.704 295.571L215.841 247.209C215.841 247.209 215.841 247.209 215.841 247.208C214.107 244.106 212.876 240.728 212.212 237.237Z" fill="white"/>
<path d="M224.995 262.715L216.26 246.976C214.791 244.316 213.689 241.48 212.986 238.533C213.817 238.263 214.679 238.071 215.589 237.992C222.488 237.386 228.604 243.169 229.259 250.895C229.642 255.578 227.934 259.895 224.995 262.715Z" fill="white"/>
</svg>
