<svg width="323" height="613" viewBox="0 0 323 613" fill="none" xmlns="http://www.w3.org/2000/svg">
<path d="M115.341 544.072C100.572 551.352 101.962 565.323 101.831 574.702C101.679 584.693 82.7397 589.918 82.7397 589.918C87.7787 573.936 84.195 557.474 84.195 557.474L115.341 544.072Z" fill="#A0505A"/>
<path d="M131.001 580.867L127.634 582.703L120.575 566.459C120.206 565.607 119.381 565.104 118.534 565.104C118.251 565.104 117.947 565.169 117.665 565.279C116.948 565.585 116.427 566.262 116.34 567.049L113.234 590.595L72.3796 612.983C71.1633 610.053 78.7434 602.707 82.7615 589.918C82.7615 589.918 101.723 584.693 101.853 574.701C101.983 565.322 100.615 551.33 115.362 544.072L118.468 542.738C135.41 550.587 131.001 580.867 131.001 580.867Z" fill="#FFCF2D"/>
<path d="M118.448 427.393V542.739L84.6521 557.497L59.3271 441.691C70.6647 442.128 89.5607 439.723 118.448 427.393Z" fill="white"/>
<path fill-rule="evenodd" clip-rule="evenodd" d="M118.991 426.566V543.097L84.2637 558.261L58.646 441.117L59.3481 441.144C70.5864 441.577 89.402 439.196 118.236 426.889L118.991 426.566ZM60.0078 442.259L85.0409 556.73L117.905 542.38V428.216C89.9696 440.045 71.4106 442.572 60.0078 442.259Z" fill="#9A3B82"/>
<path fill-rule="evenodd" clip-rule="evenodd" d="M99.7271 550.664L93.0591 437.569L94.1432 437.504L100.811 550.599L99.7271 550.664Z" fill="#9A3B82"/>
<path d="M118.448 427.393V457.585L60.9344 449.211L59.3271 441.691C70.6647 442.128 89.5607 439.723 118.448 427.393Z" fill="#9A3B82"/>
<path d="M288.774 349.123L266.924 353.758C266.186 353.911 265.447 353.671 264.926 353.124C264.557 352.709 264.361 352.206 264.361 351.681C264.361 351.113 264.578 350.545 265.035 350.129L277.197 338.651L274.504 336.225C274.504 336.225 246.269 341.8 244.662 359.53L246.812 361.891C257.911 372.866 269.878 367.204 278.24 364.362C286.233 361.651 295.768 374.134 297.657 376.714C297.679 376.714 297.722 376.714 297.744 376.714C310.341 376.298 319.268 380.802 321.462 378.769L288.774 349.123Z" fill="#FFCF2D"/>
<path d="M246.833 361.891C257.932 372.866 269.9 367.203 278.262 364.361C287.167 361.344 297.788 376.713 297.788 376.713C282.019 377.216 268.575 385.633 268.575 385.633L246.833 361.891Z" fill="#A0505A"/>
<path d="M111.911 428.374C111.911 428.374 117.406 465.737 159.564 465.038C201.721 464.338 268.118 385.414 268.118 385.414L244.769 359.66L111.911 428.374Z" fill="white"/>
<path fill-rule="evenodd" clip-rule="evenodd" d="M244.89 358.984L268.841 385.402L268.532 385.769L268.118 385.416C268.532 385.769 268.532 385.769 268.531 385.77L268.52 385.784L268.483 385.827C268.451 385.865 268.402 385.922 268.339 385.997C268.211 386.147 268.022 386.37 267.773 386.66C267.275 387.239 266.54 388.089 265.589 389.17C263.688 391.333 260.927 394.423 257.481 398.132C250.591 405.549 240.962 415.448 230.013 425.371C219.066 435.292 206.786 445.247 194.594 452.769C182.415 460.282 170.259 465.408 159.573 465.586C138.301 465.939 126.226 456.675 119.488 447.29C116.127 442.608 114.1 437.907 112.914 434.378C112.32 432.612 111.936 431.138 111.7 430.102C111.582 429.584 111.501 429.175 111.449 428.895C111.423 428.755 111.405 428.646 111.392 428.572C111.386 428.535 111.382 428.507 111.379 428.487L111.375 428.465L111.374 428.458L111.374 428.457C111.374 428.456 111.374 428.456 111.911 428.376L111.374 428.456L111.317 428.068L244.89 358.984ZM112.514 428.678C112.515 428.684 112.516 428.689 112.517 428.695C112.566 428.961 112.644 429.355 112.759 429.857C112.988 430.862 113.362 432.301 113.943 434.027C115.104 437.482 117.086 442.078 120.368 446.649C126.917 455.771 138.669 464.839 159.555 464.493C169.947 464.32 181.899 459.318 194.027 451.837C206.141 444.363 218.365 434.456 229.286 424.559C240.206 414.663 249.812 404.788 256.688 397.385C260.126 393.684 262.881 390.602 264.776 388.446C265.723 387.368 266.456 386.521 266.951 385.945C267.13 385.737 267.278 385.564 267.394 385.428L244.648 360.339L112.514 428.678Z" fill="#9A3B82"/>
<path fill-rule="evenodd" clip-rule="evenodd" d="M188.488 430.731C179.991 434.857 171.715 437.435 164.177 437.557C154.096 437.722 147.315 435.47 142.871 431.858C138.421 428.241 136.386 423.322 135.678 418.307L136.753 418.153C137.434 422.977 139.374 427.611 143.553 431.007C147.736 434.407 154.237 436.626 164.159 436.464H164.16C171.478 436.345 179.592 433.837 188.017 429.747C196.436 425.659 205.133 420.007 213.608 413.638C230.559 400.901 246.582 385.331 257.671 373.775L258.452 374.535C247.345 386.11 231.276 401.727 214.258 414.514C205.749 420.908 196.991 426.603 188.488 430.731Z" fill="#9A3B82"/>
<path d="M295.918 283.448C292.074 281.983 282.93 287.012 276.045 295.757C268.639 305.136 265.641 315.105 268.899 317.707L164.58 261.87C159.454 259.137 153.547 263.816 155.002 269.456L186.582 389.875C79.6135 459.748 45.3184 438.803 45.3184 438.803V43.0913C45.3184 43.1132 45.3184 43.1132 45.3401 43.1351C46.2523 45.4743 56.0478 43.8347 67.2334 39.4403C77.5284 35.4176 85.3909 30.4766 85.8904 27.8969L85.9122 27.875V152.557C85.9122 160.384 90.104 167.577 96.8805 171.403L295.918 283.448Z" fill="#FE5244"/>
<path d="M295.918 283.448C292.074 281.983 282.93 287.012 276.045 295.757C268.639 305.136 265.641 315.105 268.899 317.707L164.58 261.87C159.454 259.137 153.547 263.816 155.002 269.456L186.582 390.356C159.389 408.13 136.888 419.542 118.448 427.413C89.561 439.722 70.665 442.148 59.3275 441.711C49.4451 441.339 45.3184 438.803 45.3184 438.803V43.0913C45.3184 43.1132 45.3184 43.1132 45.3401 43.1351C46.2523 45.4743 56.0478 43.8347 67.2334 39.4403C77.5284 35.4176 85.3909 30.4766 85.8904 27.8969L85.9122 27.875V152.557C85.9122 160.384 90.104 167.577 96.8805 171.403L295.918 283.448Z" fill="#FE5244"/>
<path fill-rule="evenodd" clip-rule="evenodd" d="M145.718 251.851C145.89 251.533 146.285 251.415 146.602 251.587L269.208 318.53C269.525 318.703 269.642 319.101 269.47 319.42C269.299 319.738 268.903 319.856 268.587 319.684L145.98 252.74C145.664 252.568 145.547 252.169 145.718 251.851Z" fill="white"/>
<path d="M99.7914 173.021L86.043 253.454L156.219 204.81L99.7914 173.021Z" fill="#FFCF2D"/>
<path fill-rule="evenodd" clip-rule="evenodd" d="M99.9016 172.375C100.256 172.436 100.494 172.775 100.433 173.132L86.9471 252.03L155.849 204.269C156.145 204.064 156.551 204.139 156.755 204.437C156.959 204.736 156.884 205.144 156.588 205.35L85.1382 254.877L99.1489 172.91C99.21 172.553 99.5469 172.313 99.9016 172.375Z" fill="white"/>
<path d="M99.2262 17.7749L8.63406 36.4674C5.28925 37.167 1.83581 34.1718 0.945312 29.7775C0.054811 25.3831 2.05301 21.2729 5.39782 20.5733L95.9901 1.88086L99.2262 17.7749Z" fill="white"/>
<path fill-rule="evenodd" clip-rule="evenodd" d="M96.4128 1.23438L99.8671 18.1993L8.74454 37.0013C8.74406 37.0014 8.74359 37.0015 8.74311 37.0016M8.74311 37.0016C6.8713 37.3925 5.00553 36.7412 3.51445 35.4451C2.0234 34.149 0.880509 32.191 0.413303 29.8854C-0.509089 25.3337 1.52967 20.8229 5.28736 20.0369L5.2888 20.0366L96.4128 1.23438M95.567 2.52476L5.5083 21.1072C5.50811 21.1072 5.50792 21.1073 5.50773 21.1073C2.57613 21.7209 0.618815 25.4302 1.47737 29.667C1.90066 31.7558 2.92973 33.4925 4.22422 34.6177C5.51831 35.7426 7.05109 36.239 8.5236 35.931L8.52503 35.9307L98.5852 17.348L95.567 2.52476Z" fill="#3FB1B5"/>
<path d="M99.194 17.7864C102.543 17.0954 104.533 12.9779 103.64 8.58973C102.746 4.20153 99.3069 1.20434 95.9579 1.89533C92.6089 2.58633 90.6185 6.70383 91.5121 11.092C92.4057 15.4802 95.845 18.4774 99.194 17.7864Z" fill="white"/>
<path fill-rule="evenodd" clip-rule="evenodd" d="M92.6326 5.3482C91.8848 6.89514 91.6194 8.89771 92.0443 10.9841C92.4692 13.0705 93.4959 14.8065 94.788 15.9326C96.0796 17.0581 97.6103 17.5572 99.0853 17.2529C100.56 16.9485 101.772 15.8835 102.52 14.3372C103.268 12.7903 103.533 10.7877 103.108 8.70132C102.683 6.61491 101.657 4.87891 100.364 3.75288C99.0729 2.62732 97.5422 2.12825 96.0672 2.43258C94.5923 2.73691 93.3801 3.80192 92.6326 5.3482ZM91.6561 4.86993C92.5177 3.08766 93.9752 1.74842 95.8492 1.36175C97.7232 0.975093 99.5866 1.62913 101.075 2.92647C102.563 4.22333 103.703 6.18003 104.172 8.48182C104.641 10.7836 104.358 13.0339 103.496 14.8155C102.635 16.5978 101.177 17.937 99.3033 18.3237C97.4293 18.7104 95.5659 18.0563 94.0772 16.759C92.589 15.4621 91.4492 13.5054 90.9805 11.2036C90.5118 8.90183 90.7948 6.65155 91.6561 4.86993Z" fill="#3FB1B5"/>
<path d="M47.5349 25.733C47.5349 25.733 18.2352 58.8766 21.428 66.1787C25.5982 70.3545 28.9864 72.1909 28.4868 73.7432C27.9439 75.4266 20.9284 85.5927 20.9284 85.5927L20.2334 78.0501L13.5221 80.2801C13.5221 80.2801 20.6027 69.8735 21.0588 66.6816C18.1484 64.4516 12.2189 59.8167 12.4144 56.5811C12.6316 53.1487 23.0135 40.9493 30.5502 32.5323L19.1909 36.3145L16.9538 25.7549L37.3919 21.9727L47.5349 25.733Z" fill="#FE5244"/>
<path d="M43.5589 27.1757C46.9656 27.1757 49.7272 24.3959 49.7272 20.9668C49.7272 17.5377 46.9656 14.7578 43.5589 14.7578C40.1523 14.7578 37.3906 17.5377 37.3906 20.9668C37.3906 24.3959 40.1523 27.1757 43.5589 27.1757Z" fill="white"/>
<path fill-rule="evenodd" clip-rule="evenodd" d="M43.5595 15.3041C40.4527 15.3041 37.9341 17.8392 37.9341 20.9665C37.9341 24.0937 40.4527 26.6289 43.5595 26.6289C46.6663 26.6289 49.1849 24.0937 49.1849 20.9665C49.1849 17.8392 46.6663 15.3041 43.5595 15.3041ZM36.8481 20.9665C36.8481 17.2355 39.853 14.2109 43.5595 14.2109C47.2661 14.2109 50.2708 17.2355 50.2708 20.9665C50.2708 24.6974 47.2661 27.722 43.5595 27.722C39.853 27.722 36.8481 24.6974 36.8481 20.9665Z" fill="#FE5244"/>
<path d="M85.8918 27.8974C85.3922 30.4771 77.5297 35.4181 67.2347 39.4408C56.0491 43.8133 46.2535 45.4748 45.3413 43.1356C45.3413 43.1137 45.3413 43.1137 45.3196 43.0918C44.5377 40.7307 52.8346 35.3306 63.955 30.98C75.1406 26.6075 84.9361 24.9459 85.8483 27.2852C85.9135 27.4601 85.9352 27.6569 85.8918 27.8974Z" fill="#9A3B82"/>
<path d="M78.3532 9.53362L77.1586 26.8925L76.5939 35.2003C73.879 36.6432 70.6862 38.0861 67.2328 39.4416C61.3685 41.7372 55.8951 43.2675 51.877 43.9016V28.0293L68.3622 24.6188C68.3622 24.6188 69.2744 18.694 71.012 13.7312C72.7278 8.74656 78.3532 9.53362 78.3532 9.53362Z" fill="#A0505A"/>
<path fill-rule="evenodd" clip-rule="evenodd" d="M68.9209 23.4716C69.1539 23.5289 69.2967 23.7656 69.2397 24.0002C69.1994 24.1662 69.101 24.298 69.0155 24.3919C68.925 24.4914 68.8129 24.5871 68.6935 24.6783C68.4551 24.8604 68.1379 25.0618 67.7868 25.2785C67.685 25.3414 67.5795 25.406 67.4708 25.4726C66.8168 25.8734 66.0477 26.3448 65.2829 26.9127C63.4861 28.2469 61.8458 30.0187 61.8458 32.4228C61.8458 32.6642 61.6513 32.86 61.4114 32.86C61.1715 32.86 60.9771 32.6642 60.9771 32.4228C60.9771 29.5798 62.9205 27.5802 64.7671 26.209C65.5656 25.616 66.3709 25.1227 67.0238 24.7227C67.1311 24.657 67.2342 24.5938 67.3326 24.533C67.6871 24.3142 67.969 24.1339 68.1683 23.9816C68.2678 23.9057 68.3341 23.846 68.3748 23.8013C68.3897 23.7849 68.3982 23.7737 68.4026 23.7675C68.4697 23.5478 68.6962 23.4163 68.9209 23.4716Z" fill="#73325A"/>
<path d="M77.1588 26.8906L76.594 35.1984C73.8791 36.6413 70.6863 38.0843 67.2329 39.4397C61.3685 41.7353 55.8951 43.2657 51.877 43.8997V36.7288C55.0915 34.8267 59.2834 32.8154 63.9532 30.9789C68.8184 29.055 73.423 27.6558 77.1588 26.8906Z" fill="#73325A"/>
<path d="M66.3652 18.211L47.9687 22.4523C46.9913 22.671 46.0791 21.8839 46.0791 20.7908V9.55343C46.0791 8.04492 46.9913 6.73316 48.3162 6.29591L66.4954 0.327439C67.6466 -0.0442239 68.7977 0.874001 68.7977 2.16389V14.9753C68.776 16.5276 67.7769 17.8831 66.3652 18.211Z" fill="#A0505A"/>
<path fill-rule="evenodd" clip-rule="evenodd" d="M53.3589 5.07674C53.4282 5.30794 53.2982 5.55189 53.0685 5.62162C51.8842 5.98111 51.0749 7.07852 51.0749 8.32934V19.1076C51.0749 19.8781 51.7747 20.4357 52.5032 20.2763C52.7376 20.225 52.969 20.3747 53.02 20.6107C53.0709 20.8466 52.9222 21.0795 52.6877 21.1308C51.4177 21.4087 50.2061 20.4359 50.2061 19.1076V8.32934C50.2061 6.6943 51.2649 5.25566 52.8176 4.78436C53.0473 4.71464 53.2897 4.84554 53.3589 5.07674Z" fill="#73325A"/>
<path fill-rule="evenodd" clip-rule="evenodd" d="M58.6578 3.45955C58.727 3.69075 58.597 3.9347 58.3673 4.00443C57.1928 4.36101 56.3741 5.49476 56.3741 6.79961V17.9058C56.3741 18.7107 57.0859 19.275 57.8022 19.1182C58.0366 19.0669 58.2679 19.2166 58.3189 19.4526C58.3699 19.6886 58.2211 19.9215 57.9867 19.9728C56.7049 20.2533 55.5054 19.2434 55.5054 17.9058V6.79961C55.5054 5.13114 56.5545 3.64138 58.1165 3.16718C58.3462 3.09745 58.5885 3.22835 58.6578 3.45955Z" fill="#73325A"/>
<path fill-rule="evenodd" clip-rule="evenodd" d="M64.5858 1.63905C64.6584 1.86922 64.5319 2.11504 64.3032 2.18811C63.1311 2.56266 62.3038 3.73737 62.3038 5.09446V16.5942C62.3038 17.4333 63.0273 18.0045 63.732 17.8503C63.9664 17.799 64.1977 17.9487 64.2487 18.1847C64.2997 18.4207 64.1509 18.6536 63.9165 18.7049C62.6229 18.9879 61.4351 17.9413 61.4351 16.5942V5.09446C61.4351 3.39079 62.4758 1.85455 64.0403 1.3546C64.269 1.28153 64.5132 1.40888 64.5858 1.63905Z" fill="#73325A"/>
<path d="M287.839 305.179C280.432 314.58 272.135 320.286 268.878 317.684C265.62 315.083 268.617 305.135 276.023 295.734C282.93 286.989 292.052 281.961 295.896 283.426L296.657 283.863C299.936 286.487 295.245 295.8 287.839 305.179Z" fill="#9A3B82"/>
<path d="M321.352 320.986L316.422 323.61C314.467 324.659 312.034 323.916 310.992 321.948L305.801 312.241L297.938 309.531C298.807 309.858 302.195 311.607 301.131 317.969L282.669 311.039L276.327 308.656L270.311 304.786C271.723 301.901 273.656 298.796 276.067 295.757C278.087 293.199 280.28 290.969 282.474 289.133L288.751 293.549L295.18 294.249L305.627 295.364C307.299 295.539 308.907 296.107 310.318 297.003L318.659 302.972C319.875 303.846 320.679 305.158 320.874 306.645L322.568 318.582C322.72 319.565 322.221 320.527 321.352 320.986Z" fill="#A0505A"/>
<path fill-rule="evenodd" clip-rule="evenodd" d="M308.858 301.295C308.997 301.098 309.268 301.052 309.464 301.192L316.695 306.373C316.696 306.373 316.696 306.373 316.696 306.373C317.838 307.188 318.594 308.453 318.807 309.856C318.807 309.856 318.807 309.856 318.807 309.856L320.285 319.502L320.285 319.508C320.416 320.535 319.919 321.548 318.989 322.029C318.775 322.14 318.513 322.055 318.404 321.84C318.294 321.625 318.378 321.362 318.591 321.251C319.18 320.947 319.508 320.3 319.424 319.624L317.948 309.988C317.77 308.811 317.136 307.759 316.193 307.087L308.96 301.905C308.764 301.765 308.719 301.492 308.858 301.295Z" fill="#73325A"/>
<path fill-rule="evenodd" clip-rule="evenodd" d="M304.381 303.024C304.52 302.827 304.792 302.781 304.987 302.921L312.219 308.102C312.219 308.102 312.219 308.102 312.219 308.102C313.361 308.916 314.118 310.182 314.33 311.585L315.808 321.231L315.809 321.236C315.939 322.263 315.442 323.276 314.512 323.758C314.299 323.868 314.037 323.784 313.927 323.569C313.817 323.354 313.901 323.09 314.115 322.98C314.704 322.675 315.032 322.029 314.948 321.353L313.471 311.716C313.293 310.54 312.66 309.488 311.717 308.815L311.716 308.815L304.483 303.633C304.288 303.493 304.242 303.22 304.381 303.024Z" fill="#73325A"/>
<path fill-rule="evenodd" clip-rule="evenodd" d="M292.271 307.574C292.348 307.346 292.594 307.223 292.821 307.301L298.077 309.093C298.305 309.171 298.426 309.419 298.349 309.648C298.272 309.876 298.026 309.999 297.799 309.921L292.543 308.129C292.315 308.051 292.194 307.803 292.271 307.574Z" fill="#73325A"/>
<path d="M295.18 294.249C293.421 297.594 290.858 301.398 287.86 305.202C286.145 307.366 284.407 309.334 282.669 311.039L276.327 308.656L270.311 304.786C271.723 301.901 273.656 298.796 276.067 295.757C278.087 293.199 280.28 290.969 282.474 289.133L288.751 293.549L295.18 294.249Z" fill="#73325A"/>
<path d="M105.523 114.646L151.981 135.394L168.553 184.191L134.888 159.968L119.185 140.663L105.523 114.646Z" fill="#FE5244"/>
<path d="M119.186 140.663C119.186 140.663 134.389 143.287 140.514 160.339L143.751 157.06C143.751 157.06 137.864 140.466 122.313 136.203L119.186 140.663Z" fill="#9A3B82"/>
<path d="M209.798 161.849C204.585 158.875 199.764 157.236 198.222 157.826C198.33 157.564 198.395 157.257 198.374 156.951C198.287 155.989 197.505 155.268 196.571 155.268C196.527 155.268 196.484 155.268 196.419 155.268C195.42 155.355 194.681 156.23 194.746 157.236C194.746 157.301 194.768 157.367 194.768 157.411L189.251 160.974C188.013 161.783 186.493 161.827 185.19 161.105C183.887 160.384 183.126 159.072 183.126 157.585V149.606C183.126 146.129 181.411 142.916 178.522 140.992C175.633 139.068 172.006 138.762 168.835 140.117L158.323 144.84L154.326 133.056L107.629 112.221C107.347 112.089 106.999 112.221 106.869 112.527C106.739 112.811 106.869 113.161 107.173 113.292L153.392 133.93L169.878 182.487C169.964 182.727 170.182 182.88 170.421 182.88C170.486 182.88 170.551 182.859 170.616 182.859C170.92 182.749 171.072 182.421 170.985 182.115L158.714 145.955L169.313 141.188C172.136 139.964 175.351 140.248 177.892 141.954C180.455 143.659 181.975 146.501 181.975 149.606V157.585C181.975 159.509 182.974 161.215 184.647 162.133C185.429 162.57 186.276 162.789 187.123 162.789C188.079 162.789 189.034 162.504 189.881 161.958L195.355 158.438C195.68 158.744 196.115 158.919 196.571 158.919C196.614 158.919 196.679 158.919 196.723 158.919C197.114 158.897 197.461 158.744 197.722 158.504C197.722 160.056 201.675 163.532 207.105 166.636C208.278 167.314 209.451 167.926 210.558 168.451C211.232 167.883 211.796 167.205 212.252 166.396C212.709 165.609 212.991 164.756 213.121 163.882C212.079 163.226 210.971 162.526 209.798 161.849ZM196.614 158.001C196.115 158.045 195.702 157.673 195.659 157.192C195.615 156.711 195.984 156.274 196.462 156.23C196.94 156.186 197.375 156.558 197.418 157.039C197.461 157.52 197.092 157.957 196.614 158.001Z" fill="#FFCF2D"/>
<path d="M116.167 169.412L108.131 214.406L135.519 193.155V165.105L116.167 169.412Z" fill="#A0505A"/>
<path d="M116.167 169.412L115.167 175.053L127.287 199.539L135.519 193.155V165.105L116.167 169.412Z" fill="#73325A"/>
<path d="M119.64 141.123C119.64 141.123 105.935 137.69 101.657 145.692C97.378 153.693 109.888 155.902 110.41 153.103C110.649 151.879 87.8866 151.901 91.7092 169.238C95.6839 187.296 113.602 181.087 113.602 181.087L115.688 169.413L119.64 141.123Z" fill="white"/>
<path fill-rule="evenodd" clip-rule="evenodd" d="M119.746 140.698C119.746 140.698 119.746 140.698 119.641 141.122L119.746 140.698L120.126 140.793L116.117 169.482L113.986 181.417L113.744 181.501L113.603 181.087C113.744 181.501 113.744 181.501 113.744 181.501L113.743 181.501L113.74 181.502L113.728 181.506C113.719 181.509 113.705 181.514 113.687 181.52C113.65 181.532 113.597 181.549 113.529 181.57C113.392 181.613 113.192 181.672 112.938 181.741C112.429 181.878 111.701 182.053 110.814 182.206C109.045 182.511 106.633 182.728 104.086 182.367C101.538 182.006 98.8399 181.064 96.5227 179.038C94.2026 177.009 92.2963 173.923 91.2858 169.332C90.3087 164.901 91.0231 161.524 92.6906 158.989C94.3497 156.467 96.9177 154.831 99.5594 153.802C100.525 153.426 101.504 153.129 102.46 152.898C101.738 152.34 101.131 151.644 100.751 150.799C100.104 149.36 100.156 147.577 101.275 145.484C103.53 141.267 108.241 140.113 112.238 139.969C114.252 139.897 116.126 140.079 117.495 140.278C118.18 140.378 118.74 140.482 119.13 140.562C119.325 140.602 119.478 140.635 119.582 140.659C119.635 140.671 119.675 140.681 119.702 140.687C119.716 140.691 119.727 140.693 119.734 140.695L119.742 140.697L119.745 140.698L119.746 140.698ZM103.489 153.565C102.312 153.805 101.079 154.147 99.873 154.618C97.3319 155.608 94.9411 157.152 93.4149 159.472C91.8971 161.779 91.1998 164.906 92.134 169.143C93.1109 173.581 94.9348 176.491 97.0924 178.377C99.2527 180.266 101.78 181.157 104.208 181.501C106.637 181.846 108.954 181.639 110.668 181.344C111.524 181.197 112.226 181.028 112.713 180.896C112.926 180.839 113.097 180.788 113.222 180.75L115.259 169.343L119.155 141.46C119.096 141.448 119.03 141.434 118.957 141.419C118.581 141.342 118.037 141.241 117.371 141.144C116.036 140.949 114.216 140.773 112.269 140.843C108.344 140.984 104.064 142.114 102.04 145.899C101.019 147.807 101.031 149.301 101.542 150.439C101.953 151.352 102.711 152.091 103.637 152.645C104.866 152.41 106.027 152.282 107.03 152.233C108.068 152.182 108.951 152.213 109.578 152.301C109.887 152.344 110.16 152.404 110.362 152.487C110.46 152.528 110.576 152.587 110.67 152.68C110.772 152.779 110.881 152.956 110.837 153.185C110.738 153.714 110.36 154.079 109.902 154.308C109.447 154.535 108.868 154.655 108.244 154.687C106.992 154.753 105.444 154.474 104.056 153.846C103.864 153.76 103.675 153.666 103.489 153.565ZM105.033 153.3C105.761 153.199 106.448 153.137 107.073 153.106C108.076 153.057 108.902 153.089 109.459 153.167C109.635 153.191 109.775 153.219 109.88 153.247C109.806 153.343 109.69 153.438 109.516 153.525C109.204 153.681 108.754 153.785 108.199 153.814C107.27 153.863 106.127 153.695 105.033 153.3Z" fill="#9A3B82"/>
<path d="M135.3 167.008C135.3 167.008 114.84 193.855 132.824 205.267C147.246 214.406 150.96 201.529 147.094 199.758C142.902 197.834 133.28 234.126 162.906 234.017C192.596 233.907 183.517 196.588 168.553 184.214C161.407 178.311 137.559 161.805 137.559 161.805L135.3 167.008Z" fill="white"/>
<path fill-rule="evenodd" clip-rule="evenodd" d="M137.805 161.445L137.559 161.805C137.805 161.445 137.805 161.445 137.806 161.445L137.874 161.492C137.919 161.524 137.987 161.57 138.075 161.632C138.252 161.754 138.511 161.934 138.845 162.166C139.511 162.629 140.471 163.297 141.645 164.117C143.993 165.757 147.198 168.005 150.627 170.438C157.478 175.3 165.241 180.912 168.828 183.876C176.414 190.148 182.476 202.692 182.909 213.697C183.126 219.209 181.934 224.392 178.751 228.21C175.559 232.04 170.424 234.426 162.907 234.454C155.408 234.482 150.331 232.203 147.034 228.742C143.746 225.291 142.278 220.718 141.886 216.246C141.665 213.724 141.784 211.222 142.117 208.948C139.631 209.006 136.465 208.091 132.593 205.638L132.593 205.638C127.985 202.714 125.823 198.782 125.195 194.54C124.569 190.318 125.464 185.815 126.909 181.712C128.356 177.605 130.368 173.864 132.014 171.153C132.838 169.797 133.572 168.696 134.1 167.934C134.364 167.553 134.577 167.256 134.725 167.054C134.799 166.953 134.856 166.875 134.895 166.823C134.906 166.808 134.915 166.796 134.923 166.785L137.372 161.145L137.805 161.445ZM143.005 208.884C142.66 211.143 142.53 213.647 142.751 216.169C143.133 220.515 144.552 224.874 147.661 228.137C150.761 231.39 155.591 233.607 162.904 233.58C170.233 233.553 175.097 231.234 178.086 227.648C181.084 224.051 182.253 219.111 182.041 213.732C181.617 202.957 175.657 190.654 168.277 184.552C164.719 181.613 156.985 176.02 150.126 171.153C146.7 168.722 143.496 166.475 141.149 164.835C139.976 164.016 139.017 163.348 138.351 162.885C138.11 162.718 137.907 162.577 137.746 162.466L135.677 167.232L135.645 167.274L135.416 167.097C135.645 167.274 135.645 167.274 135.645 167.274L135.644 167.275L135.642 167.278L135.632 167.292C135.622 167.304 135.608 167.323 135.59 167.348C135.552 167.398 135.497 167.473 135.425 167.571C135.282 167.768 135.073 168.059 134.813 168.434C134.292 169.185 133.568 170.27 132.755 171.609C131.127 174.29 129.148 177.974 127.728 182.004C126.306 186.04 125.458 190.388 126.054 194.411C126.647 198.412 128.672 202.115 133.056 204.898C136.934 207.355 139.969 208.17 142.259 208.067C142.508 206.646 142.839 205.331 143.218 204.178C143.74 202.59 144.362 201.28 145.008 200.419C145.33 199.99 145.678 199.645 146.048 199.443C146.43 199.234 146.859 199.17 147.274 199.36C148.464 199.905 148.99 201.258 148.958 202.661C148.925 204.083 148.33 205.68 147.127 206.911C146.136 207.924 144.766 208.664 143.005 208.884ZM143.158 207.975C143.394 206.69 143.698 205.501 144.043 204.452C144.549 202.91 145.135 201.701 145.701 200.946C145.986 200.567 146.245 200.33 146.462 200.212C146.667 200.1 146.805 200.106 146.914 200.156L146.914 200.156C147.657 200.497 148.117 201.417 148.089 202.641C148.062 203.846 147.552 205.229 146.508 206.297C145.729 207.093 144.624 207.736 143.158 207.975Z" fill="#9A3B82"/>
<path d="M134.693 160.274L136.235 161.258C137.734 162.22 138.168 164.209 137.234 165.718L136.93 166.177C135.974 167.685 133.998 168.144 132.499 167.182L130.848 166.133C129.024 167.445 118.056 174.812 111.279 167.488C104.698 160.383 119.902 139.592 119.902 139.592C132.803 143.658 137.842 155.202 137.842 155.202L134.693 160.274Z" fill="#A0505A"/>
<path fill-rule="evenodd" clip-rule="evenodd" d="M115.26 144.162C115.343 143.936 115.594 143.82 115.818 143.905L115.667 144.314C115.818 143.905 115.819 143.905 115.819 143.905L115.819 143.905L115.82 143.905L115.824 143.906L115.834 143.91C115.842 143.914 115.854 143.918 115.869 143.924C115.899 143.936 115.941 143.954 115.993 143.977C116.098 144.023 116.245 144.092 116.42 144.184C116.767 144.367 117.23 144.647 117.685 145.032C118.59 145.801 119.51 147.036 119.313 148.78C119.136 150.349 118.264 152.322 117.537 153.966C117.512 154.023 117.487 154.08 117.462 154.136C117.083 154.994 116.752 155.752 116.561 156.346C116.465 156.643 116.413 156.874 116.401 157.04C116.393 157.153 116.405 157.2 116.409 157.212C116.731 157.56 117.111 157.771 117.418 157.895C117.572 157.958 117.704 157.997 117.796 158.02C117.841 158.032 117.877 158.04 117.899 158.044C117.91 158.046 117.918 158.048 117.923 158.048L117.926 158.049L117.925 158.049L117.925 158.049C117.925 158.049 117.926 158.049 117.926 158.049L117.926 158.049C117.927 158.049 117.927 158.049 117.926 158.049L117.926 158.049C118.163 158.085 118.326 158.307 118.29 158.546C118.255 158.785 118.034 158.949 117.797 158.914L117.861 158.481C117.797 158.914 117.797 158.914 117.796 158.914L117.796 158.914L117.795 158.914L117.794 158.913L117.789 158.913C117.786 158.912 117.781 158.911 117.776 158.91C117.765 158.908 117.75 158.906 117.732 158.902C117.695 158.895 117.645 158.884 117.583 158.868C117.46 158.837 117.289 158.786 117.093 158.706C116.702 158.548 116.196 158.27 115.76 157.794C115.541 157.554 115.516 157.232 115.534 156.977C115.554 156.707 115.631 156.398 115.735 156.076C115.943 155.429 116.295 154.626 116.668 153.781C116.682 153.75 116.695 153.719 116.709 153.688C117.462 151.984 118.288 150.114 118.45 148.681C118.601 147.343 117.913 146.37 117.125 145.701C116.732 145.367 116.326 145.121 116.017 144.958C115.863 144.877 115.734 144.817 115.646 144.778C115.601 144.759 115.567 144.745 115.545 144.736C115.534 144.731 115.526 144.728 115.521 144.726L115.516 144.724L115.516 144.724C115.515 144.724 115.515 144.724 115.515 144.724L115.515 144.724C115.515 144.724 115.515 144.724 115.515 144.724L115.515 144.724M115.26 144.162C115.176 144.388 115.291 144.64 115.515 144.724L115.26 144.162Z" fill="#73325A"/>
<path fill-rule="evenodd" clip-rule="evenodd" d="M114.796 160.34C114.584 160.722 114.584 160.722 114.585 160.722L114.585 160.722L114.586 160.723L114.588 160.724L114.597 160.728C114.603 160.732 114.612 160.737 114.624 160.743C114.648 160.756 114.681 160.773 114.724 160.794C114.811 160.837 114.936 160.897 115.096 160.965C115.417 161.103 115.88 161.278 116.459 161.434C117.616 161.747 119.242 161.986 121.118 161.69C121.355 161.653 121.517 161.429 121.48 161.19C121.443 160.952 121.221 160.789 120.984 160.826C119.255 161.099 117.753 160.878 116.684 160.59C116.15 160.445 115.725 160.284 115.436 160.161C115.292 160.099 115.182 160.047 115.109 160.01C115.073 159.992 115.046 159.978 115.029 159.969C115.02 159.965 115.014 159.961 115.011 159.96L115.007 159.958C115.007 159.957 115.007 159.957 115.007 159.957L115.007 159.958C114.797 159.84 114.533 159.916 114.416 160.127C114.3 160.338 114.375 160.604 114.584 160.722L114.796 160.34Z" fill="#73325A"/>
<path d="M126.153 155.965C126.461 155.152 126.356 154.358 125.919 154.19C125.482 154.023 124.878 154.545 124.57 155.357C124.263 156.17 124.368 156.964 124.805 157.132C125.242 157.3 125.845 156.777 126.153 155.965Z" fill="#73325A"/>
<path d="M116.126 151.333C116.383 150.656 116.291 149.992 115.921 149.85C115.551 149.709 115.043 150.142 114.787 150.819C114.531 151.496 114.623 152.16 114.992 152.302C115.362 152.444 115.87 152.01 116.126 151.333Z" fill="#73325A"/>
<path fill-rule="evenodd" clip-rule="evenodd" d="M136.153 163.77C135.4 163.288 134.409 163.511 133.929 164.27C133.8 164.473 133.532 164.533 133.329 164.404C133.127 164.274 133.067 164.004 133.196 163.8C133.932 162.635 135.46 162.29 136.619 163.032C136.821 163.162 136.881 163.432 136.752 163.636C136.624 163.839 136.355 163.899 136.153 163.77Z" fill="#73325A"/>
<path fill-rule="evenodd" clip-rule="evenodd" d="M125.128 150.081C125.191 149.848 125.43 149.71 125.661 149.773L125.548 150.195C125.661 149.773 125.661 149.773 125.662 149.773L125.662 149.773L125.663 149.774L125.666 149.775L125.675 149.777C125.683 149.779 125.692 149.782 125.705 149.786C125.729 149.793 125.763 149.804 125.805 149.819C125.89 149.848 126.009 149.893 126.155 149.956C126.447 150.083 126.846 150.285 127.29 150.592C128.178 151.206 129.242 152.24 129.964 153.912C130.06 154.134 129.959 154.392 129.739 154.488C129.519 154.584 129.263 154.482 129.168 154.261C128.521 152.764 127.576 151.851 126.798 151.313C126.408 151.043 126.059 150.867 125.811 150.759C125.687 150.705 125.589 150.669 125.523 150.646C125.491 150.635 125.466 150.627 125.451 150.622C125.444 150.62 125.438 150.618 125.435 150.618L125.433 150.617C125.202 150.553 125.066 150.314 125.128 150.081Z" fill="#73325A"/>
<path d="M129.501 144.883C129.501 144.883 126.612 154.524 134.887 161.105C139.753 164.975 140.035 160.318 140.035 160.318C140.035 160.318 139.405 150.851 129.501 144.883Z" fill="white"/>
<path fill-rule="evenodd" clip-rule="evenodd" d="M129.246 144.219L129.724 144.507C134.765 147.545 137.453 151.478 138.878 154.658C139.59 156.246 139.987 157.646 140.206 158.651C140.316 159.154 140.381 159.558 140.419 159.84C140.438 159.98 140.45 160.09 140.458 160.166C140.462 160.204 140.464 160.233 140.466 160.253C140.467 160.264 140.467 160.272 140.468 160.277L140.468 160.284L140.468 160.287L140.469 160.287C140.469 160.288 140.469 160.288 140.035 160.317C140.469 160.344 140.469 160.344 140.469 160.344L140.469 160.346L140.468 160.351C140.468 160.354 140.468 160.359 140.467 160.365C140.466 160.376 140.465 160.392 140.463 160.411C140.459 160.45 140.453 160.505 140.443 160.572C140.424 160.706 140.391 160.891 140.334 161.1C140.222 161.509 140.009 162.054 139.592 162.471C139.156 162.909 138.526 163.174 137.68 163.046C136.862 162.922 135.861 162.436 134.618 161.447C130.368 158.067 128.98 153.891 128.659 150.568C128.499 148.909 128.604 147.463 128.749 146.43C128.822 145.913 128.905 145.499 128.97 145.212C129.002 145.068 129.031 144.956 129.051 144.879C129.061 144.841 129.07 144.811 129.075 144.79C129.078 144.78 129.081 144.772 129.082 144.766L129.084 144.759L129.085 144.757L129.085 144.756C129.085 144.756 129.085 144.756 129.501 144.882L129.085 144.756L129.246 144.219ZM129.781 145.568C129.727 145.822 129.665 146.154 129.609 146.553C129.471 147.533 129.372 148.908 129.524 150.483C129.827 153.626 131.132 157.56 135.157 160.761C136.347 161.707 137.206 162.09 137.809 162.181C138.384 162.268 138.737 162.094 138.979 161.852C139.242 161.589 139.403 161.212 139.496 160.869C139.542 160.701 139.568 160.553 139.584 160.447C139.591 160.394 139.596 160.353 139.598 160.325C139.599 160.322 139.599 160.319 139.599 160.317C139.598 160.301 139.596 160.28 139.593 160.253C139.587 160.187 139.576 160.087 139.558 159.958C139.523 159.698 139.462 159.316 139.358 158.838C139.149 157.882 138.77 156.542 138.086 155.018C136.769 152.078 134.321 148.452 129.781 145.568ZM140.035 160.317L140.469 160.344L140.47 160.316L140.469 160.288L140.035 160.317Z" fill="#9A3B82"/>
</svg>
