<svg width="16" height="17" viewBox="0 0 16 17" fill="none" xmlns="http://www.w3.org/2000/svg">
<path fill-rule="evenodd" clip-rule="evenodd" d="M4.99967 1.33398C5.36786 1.33398 5.66634 1.63246 5.66634 2.00065V2.33399L10.333 2.334V2.00065C10.333 1.63246 10.6315 1.33398 10.9997 1.33398C11.3679 1.33398 11.6663 1.63246 11.6663 2.00065V2.334L12.4997 2.33401C13.9724 2.33401 15.1663 3.52792 15.1663 5.00067V13.0006C15.1663 14.4734 13.9724 15.6673 12.4997 15.6673L3.49967 15.6673C2.02691 15.6673 0.833008 14.4734 0.833008 13.0007L0.833008 6.50078L0.833008 5.00065C0.833008 3.52789 2.02692 2.33398 3.49968 2.33399L4.33301 2.33399V2.00065C4.33301 1.63246 4.63148 1.33398 4.99967 1.33398ZM4.33301 3.66732L3.49968 3.66732C2.7633 3.66732 2.16634 4.26427 2.16634 5.00065V5.83398H13.833V5.00067C13.833 4.26429 13.2361 3.66734 12.4997 3.66734L11.6663 3.66734V4.00065C11.6663 4.36884 11.3679 4.66732 10.9997 4.66732C10.6315 4.66732 10.333 4.36884 10.333 4.00065V3.66734L5.66634 3.66733V4.00065C5.66634 4.36884 5.36786 4.66732 4.99967 4.66732C4.63148 4.66732 4.33301 4.36884 4.33301 4.00065V3.66732ZM13.833 7.16732H2.16634L2.16634 13.0007C2.16634 13.737 2.76329 14.334 3.49967 14.334L12.4997 14.334C13.2361 14.334 13.833 13.737 13.833 13.0006V7.16732Z" fill="#787A80"/>
</svg>
