<svg width="354" height="246" viewBox="0 0 354 246" fill="none" xmlns="http://www.w3.org/2000/svg">
<g clip-path="url(#clip0_2234_9993)">
<path d="M337.002 211.79V246.001H285.534L295.562 193.467C295.241 195.541 301.66 199.429 310.444 203.329C313.596 204.728 317.112 206.118 320.866 207.435C326.922 209.571 332.501 211.023 337.002 211.79C337.002 211.79 336.992 211.79 337.002 211.79Z" fill="#9A3B82"/>
<path d="M337.002 201.503V210.659C332.501 209.892 326.932 208.451 320.855 206.314C306.534 201.285 295.51 195.073 296.133 192.284C296.143 192.242 296.153 192.201 296.164 192.17C297.128 189.443 309.811 191.33 324.33 196.422C328.996 198.06 333.207 199.75 336.743 201.378C336.826 201.42 336.909 201.461 337.002 201.503Z" fill="#FFCF2D"/>
<path d="M329.939 122.236C324.92 122.236 320.855 126.301 320.855 131.31V156.177C320.855 161.186 316.789 165.251 311.781 165.251H275.401C280.421 165.251 284.475 161.186 284.475 156.177V131.31C284.475 126.291 288.541 122.236 293.549 122.236H329.939Z" fill="white"/>
<path fill-rule="evenodd" clip-rule="evenodd" d="M293.549 122.495C288.684 122.495 284.735 126.434 284.735 131.309V156.176C284.735 160.251 282.125 163.719 278.479 164.991H311.781C316.646 164.991 320.595 161.042 320.595 156.176V131.309C320.595 127.234 323.212 123.766 326.86 122.495H293.549ZM329.939 121.977H293.549C288.398 121.977 284.216 126.147 284.216 131.309V156.176C284.216 161.042 280.277 164.991 275.401 164.991V165.509H311.781C316.933 165.509 321.114 161.328 321.114 156.176V131.309C321.114 126.444 325.063 122.495 329.939 122.495V121.977Z" fill="#FFCF2D"/>
<path d="M314.031 135.105H290.863V156.602H314.031V135.105Z" fill="white"/>
<path fill-rule="evenodd" clip-rule="evenodd" d="M290.604 134.846H314.29V156.861H290.604V134.846ZM291.123 135.364V156.342H313.772V135.364H291.123Z" fill="#FFCF2D"/>
<path fill-rule="evenodd" clip-rule="evenodd" d="M290.863 137.916H314.02V138.435H290.863V137.916Z" fill="#FFCF2D"/>
<path fill-rule="evenodd" clip-rule="evenodd" d="M290.863 140.984H314.02V141.503H290.863V140.984Z" fill="#FFCF2D"/>
<path fill-rule="evenodd" clip-rule="evenodd" d="M290.863 144.064H314.02V144.583H290.863V144.064Z" fill="#FFCF2D"/>
<path fill-rule="evenodd" clip-rule="evenodd" d="M290.863 147.135H314.02V147.653H290.863V147.135Z" fill="#FFCF2D"/>
<path fill-rule="evenodd" clip-rule="evenodd" d="M290.863 150.215H314.02V150.733H290.863V150.215Z" fill="#FFCF2D"/>
<path fill-rule="evenodd" clip-rule="evenodd" d="M290.863 153.283H314.02V153.802H290.863V153.283Z" fill="#FFCF2D"/>
<path d="M320.855 131.31C320.855 126.322 324.879 122.278 329.847 122.236C334.824 122.278 338.838 126.322 338.838 131.31H320.855Z" fill="#66B0F0"/>
<path fill-rule="evenodd" clip-rule="evenodd" d="M329.846 121.977L329.848 121.977C334.968 122.019 339.096 126.179 339.096 131.309V131.569H320.596V131.309C320.596 126.179 324.734 122.019 329.844 121.977L329.846 121.977ZM329.846 122.495C325.108 122.536 321.254 126.325 321.118 131.05H338.574C338.438 126.325 334.594 122.536 329.846 122.495Z" fill="#FFCF2D"/>
<path d="M311.823 165.479C311.812 165.479 311.792 165.479 311.781 165.479H275.537C275.516 165.479 275.495 165.479 275.475 165.479C271.752 165.427 268.568 163.125 267.22 159.869H303.537C304.895 163.125 308.079 165.427 311.823 165.479Z" fill="#FFCF2D"/>
<path d="M292.378 132.635H288.188V129.275H290.159V131.142C290.159 131.183 290.18 131.215 290.2 131.225L290.211 131.235L292.378 132.635Z" fill="#FE5244"/>
<path d="M294.006 130.438V130.884C294.006 130.967 293.996 131.05 293.996 131.133C293.996 131.154 293.985 131.185 293.985 131.205C293.975 131.247 293.975 131.288 293.964 131.33C293.85 131.9 293.508 132.367 293.083 132.543C293.052 132.554 293.021 132.564 292.99 132.574C292.938 132.595 292.876 132.605 292.824 132.616C292.803 132.616 292.782 132.626 292.762 132.626L290.387 131.081C290.407 130.718 290.636 130.428 290.905 130.428H294.006V130.438Z" fill="#FE5244"/>
<path d="M317.143 129.275V132.635H312.953L315.11 131.235L315.121 131.225C315.131 131.215 315.131 131.215 315.141 131.215C315.141 131.204 315.152 131.204 315.152 131.194C315.152 131.194 315.152 131.183 315.162 131.183C315.162 131.173 315.162 131.173 315.172 131.173C315.172 131.173 315.172 131.173 315.172 131.163C315.172 131.152 315.172 131.152 315.172 131.142V129.275H317.143Z" fill="#FE5244"/>
<path d="M314.964 131.092L312.589 132.638C312.527 132.627 312.465 132.617 312.403 132.606C312.382 132.596 312.361 132.596 312.34 132.586C312.309 132.575 312.288 132.565 312.257 132.555C312.237 132.544 312.205 132.534 312.185 132.523C311.863 132.347 311.594 132.005 311.459 131.58C311.438 131.518 311.417 131.455 311.407 131.393C311.397 131.372 311.397 131.341 311.386 131.31C311.365 131.175 311.345 131.041 311.345 130.895V130.449H314.456C314.715 130.439 314.943 130.729 314.964 131.092Z" fill="#FE5244"/>
<path d="M314.965 127.576V130.501C314.944 130.48 314.924 130.449 314.903 130.428C314.861 130.387 314.82 130.355 314.778 130.324C314.675 130.262 314.561 130.221 314.447 130.221H290.895C290.771 130.221 290.657 130.262 290.564 130.324C290.522 130.355 290.481 130.387 290.439 130.428C290.418 130.449 290.398 130.469 290.377 130.501V127.576C290.377 127.182 290.605 126.871 290.895 126.871H314.447C314.727 126.871 314.965 127.193 314.965 127.576Z" fill="#FE5244"/>
<path d="M337.002 170.011V210.66H336.992C332.491 209.893 326.922 208.452 320.845 206.315C317.091 204.998 313.575 203.599 310.423 202.209L312.113 192.772L314.986 176.751C305.974 173.93 304.512 165.261 304.512 165.261H311.761C316.78 165.261 320.835 161.196 320.835 156.188V153.201H316.178C312.912 153.201 310.257 149.986 310.257 146.72V145.662H320.607C322.525 145.662 324.329 146.564 325.481 148.099L333.051 158.21C335.623 161.611 337.002 165.749 337.002 170.011Z" fill="#A0505A"/>
<path d="M337.002 201.503V210.66H336.992C332.491 209.892 326.922 208.451 320.845 206.315C317.091 204.998 313.575 203.598 310.423 202.208L312.113 192.771C315.847 193.684 319.995 194.918 324.309 196.432C328.975 198.07 333.186 199.761 336.712 201.389C336.826 201.42 336.909 201.461 337.002 201.503Z" fill="#73325A"/>
<path d="M321.312 153.201H316.313C313.046 153.201 310.392 149.986 310.392 146.72V145.662H321.312V153.201Z" fill="#A0505A"/>
<path fill-rule="evenodd" clip-rule="evenodd" d="M318.078 163.544C318.078 163.544 318.078 163.544 318.169 163.301C318.261 163.058 318.261 163.059 318.261 163.059L318.261 163.059L318.263 163.059L318.268 163.061C318.272 163.063 318.278 163.065 318.286 163.068C318.301 163.074 318.322 163.083 318.35 163.095C318.406 163.118 318.487 163.153 318.59 163.201C318.795 163.296 319.086 163.441 319.436 163.645C320.137 164.053 321.076 164.694 322.036 165.632C323.959 167.509 325.957 170.569 326.289 175.291L325.772 175.328C325.45 170.748 323.518 167.804 321.674 166.003C320.75 165.101 319.847 164.484 319.175 164.093C318.84 163.898 318.563 163.76 318.371 163.671C318.275 163.626 318.201 163.594 318.151 163.573C318.126 163.563 318.107 163.555 318.095 163.55C318.089 163.548 318.084 163.546 318.081 163.545L318.079 163.544L318.078 163.544ZM318.078 163.544C318.078 163.544 318.078 163.544 318.078 163.544L318.078 163.544Z" fill="#73325A"/>
<path fill-rule="evenodd" clip-rule="evenodd" d="M319.912 177.227H315.007V176.709H319.912V177.227Z" fill="#73325A"/>
<path fill-rule="evenodd" clip-rule="evenodd" d="M323.833 63.6303C323.447 58.7542 317.978 56.0837 313.892 58.7841L310.605 60.9616L310.262 60.4429L313.549 58.265C318.03 55.3034 324.03 58.2327 324.453 63.5813L325.169 72.6341C325.169 72.6341 325.169 72.6341 325.169 72.6341C325.545 77.3717 330.757 80.0718 334.842 77.6486L336.916 76.4148L337.234 76.9495L335.16 78.1836L335.16 78.1838C330.679 80.8419 324.961 77.88 324.549 72.6833L323.833 63.6303Z" fill="#FFCF2D"/>
<path d="M262.657 27.0723L304.896 51.5866L326.165 99.3399L301.764 82.9037L275.247 51.8355L262.657 27.0723Z" fill="#9A3B82"/>
<path fill-rule="evenodd" clip-rule="evenodd" d="M305.659 50.6851L262.615 25.6924L262.928 25.1543L306.145 50.2481L327.912 99.0991L327.343 99.3523L305.659 50.6851Z" fill="#FFCF2D"/>
<path d="M301.323 83.9581C303.297 82.2919 298.862 73.7929 291.417 64.975C283.972 56.1572 276.336 50.3597 274.363 52.026C272.389 53.6922 276.824 62.1912 284.269 71.0091C291.714 79.8269 299.349 85.6244 301.323 83.9581Z" fill="white"/>
<path d="M300.124 84.4667C302.058 82.8337 297.707 74.5 290.407 65.8528C283.106 57.2057 275.619 51.5196 273.685 53.1526C271.751 54.7856 276.101 63.1193 283.402 71.7664C290.703 80.4136 298.189 86.0997 300.124 84.4667Z" fill="white"/>
<path fill-rule="evenodd" clip-rule="evenodd" d="M275.31 59.7108C277.057 63.0579 279.958 67.2873 283.6 71.6008C287.242 75.9143 290.925 79.483 293.932 81.7667C295.437 82.9099 296.761 83.7222 297.818 84.1483C298.347 84.3615 298.796 84.4726 299.16 84.487C299.521 84.5014 299.779 84.4201 299.956 84.2702C300.134 84.1202 300.257 83.8798 300.304 83.521C300.351 83.1603 300.316 82.6992 300.195 82.1422C299.952 81.0286 299.373 79.5871 298.499 77.9116C296.751 74.5645 293.851 70.3351 290.209 66.0216C286.567 61.7081 282.884 58.1394 279.877 55.8556C278.372 54.7125 277.047 53.9002 275.99 53.4741C275.462 53.2609 275.013 53.1498 274.649 53.1354C274.288 53.121 274.03 53.2022 273.852 53.3522C273.675 53.5022 273.551 53.7426 273.505 54.1014C273.458 54.4621 273.493 54.9232 273.614 55.4802C273.857 56.5937 274.436 58.0353 275.31 59.7108ZM272.991 54.0348C273.048 53.5915 273.212 53.2143 273.518 52.956C273.824 52.6978 274.223 52.5995 274.67 52.6173C275.115 52.635 275.625 52.7678 276.184 52.9932C277.303 53.4442 278.669 54.2876 280.19 55.4428C283.236 57.7556 286.946 61.3535 290.605 65.6872C294.264 70.0208 297.189 74.2819 298.958 77.6717C299.842 79.3647 300.444 80.8531 300.701 82.0317C300.83 82.6207 300.875 83.1461 300.818 83.5875C300.761 84.0309 300.597 84.4081 300.291 84.6664C299.985 84.9246 299.586 85.0229 299.139 85.0051C298.694 84.9874 298.184 84.8546 297.625 84.6292C296.506 84.1782 295.139 83.3348 293.618 82.1796C290.573 79.8668 286.863 76.2689 283.204 71.9352C279.545 67.6016 276.62 63.3405 274.851 59.9507C273.967 58.2577 273.364 56.7692 273.107 55.5907C272.979 55.0017 272.934 54.4763 272.991 54.0348Z" fill="#FFCF2D"/>
<path d="M305.27 80.6023L301.246 83.9932C301.993 83.3606 301.827 81.7637 300.925 79.5342C299.442 75.8632 295.968 70.502 291.342 65.006C286.707 59.5203 281.999 55.1961 278.628 53.1221C276.585 51.857 275.03 51.4214 274.283 52.054L278.307 48.6631C280.277 46.9935 288.262 52.4481 295.708 61.2728C303.154 70.0976 307.251 78.9431 305.27 80.6023Z" fill="#FFCF2D"/>
<path d="M348.254 67.6289C349.394 67.0793 350.504 66.5919 351.572 66.1875C352.205 66.8512 352.754 67.6289 353.179 68.5C353.605 69.371 353.874 70.2836 353.999 71.1858C353.014 71.7665 351.945 72.3472 350.815 72.8968C345.142 75.6448 339.978 76.6922 339.273 75.2404C338.557 73.7782 342.581 70.3769 348.254 67.6289Z" fill="#FFCF2D"/>
<path fill-rule="evenodd" clip-rule="evenodd" d="M338.237 75.0109C337.716 75.0109 337.293 75.4333 337.293 75.9545C337.293 76.4757 337.716 76.8982 338.237 76.8982C338.758 76.8982 339.18 76.4757 339.18 75.9545C339.18 75.4333 338.758 75.0109 338.237 75.0109ZM336.671 75.9545C336.671 75.0897 337.372 74.3887 338.237 74.3887C339.102 74.3887 339.803 75.0897 339.803 75.9545C339.803 76.8193 339.102 77.5203 338.237 77.5203C337.372 77.5203 336.671 76.8193 336.671 75.9545Z" fill="#9A3B82"/>
<path d="M264.182 202.095V246.001H214.166L220.575 198.32C220.575 200.249 230.333 202.655 242.373 203.692C254.413 204.739 264.182 204.024 264.182 202.095Z" fill="#66B0F0"/>
<path d="M263.955 200.965C263.955 202.894 254.279 203.609 242.353 202.562C230.428 201.515 220.752 199.109 220.752 197.19C220.752 195.262 230.428 194.546 242.353 195.594C254.29 196.631 263.955 199.036 263.955 200.965Z" fill="#3FB1B5"/>
<path fill-rule="evenodd" clip-rule="evenodd" d="M273.739 105.846L270.722 103.893L271.06 103.371L274.1 105.338L274.11 105.346C274.992 106.029 275.295 107.259 275.198 108.768C275.1 110.291 274.591 112.184 273.739 114.315C272.033 118.579 268.92 123.862 264.811 129.156C260.702 134.456 256.36 138.785 252.655 141.499C250.804 142.854 249.097 143.818 247.646 144.292C246.208 144.762 244.941 144.775 244.059 144.093L244.047 144.083L242.543 142.662L242.97 142.21L244.452 143.609C245.085 144.091 246.087 144.147 247.453 143.7C248.815 143.255 250.462 142.333 252.287 140.997C255.934 138.326 260.236 134.042 264.32 128.775L264.32 128.775C268.403 123.513 271.482 118.281 273.161 114.084C274.002 111.983 274.485 110.159 274.577 108.729C274.669 107.293 274.365 106.338 273.739 105.846Z" fill="#66B0F0"/>
<path d="M228.84 152.827L263.218 121.365L275.237 84.7695L238.547 118.109L228.84 152.827Z" fill="#66B0F0"/>
<path fill-rule="evenodd" clip-rule="evenodd" d="M276.807 84.9316C276.97 84.9852 277.059 85.161 277.005 85.3242L264.774 122.578L227.298 156.874C227.171 156.99 226.974 156.981 226.858 156.855C226.742 156.728 226.751 156.531 226.877 156.415L264.234 122.229L276.414 85.1302C276.468 84.9669 276.643 84.878 276.807 84.9316Z" fill="#FE5244"/>
<path fill-rule="evenodd" clip-rule="evenodd" d="M214.013 152.261L246.659 121.037L247.089 121.487L214.443 152.71L214.443 152.711C212.636 154.435 209.682 152.805 210.19 150.349L211.102 145.921L211.102 145.921C211.459 144.198 209.504 142.939 208.085 143.974L208.085 143.975L197.3 151.825L196.934 151.322L207.719 143.472C207.719 143.472 207.719 143.472 207.719 143.472M211.712 146.047C212.184 143.767 209.598 142.101 207.719 143.472L211.712 146.047ZM211.712 146.047L210.799 150.474L210.799 150.475C210.415 152.332 212.646 153.564 214.013 152.261L214.013 152.261" fill="#FE5244"/>
<path d="M188.334 162.751C187.369 163.56 186.405 164.307 185.471 164.96C184.694 164.473 183.978 163.861 183.345 163.114C182.723 162.368 182.236 161.559 181.894 160.708C182.702 159.9 183.594 159.08 184.559 158.261C189.381 154.206 194.131 151.915 195.178 153.159C196.215 154.403 193.156 158.697 188.334 162.751Z" fill="#FFCF2D"/>
<path fill-rule="evenodd" clip-rule="evenodd" d="M196.112 151.386C195.591 151.386 195.168 151.808 195.168 152.33C195.168 152.851 195.591 153.273 196.112 153.273C196.633 153.273 197.056 152.851 197.056 152.33C197.056 151.808 196.633 151.386 196.112 151.386ZM194.546 152.33C194.546 151.465 195.247 150.764 196.112 150.764C196.977 150.764 197.678 151.465 197.678 152.33C197.678 153.194 196.977 153.895 196.112 153.895C195.247 153.895 194.546 153.194 194.546 152.33Z" fill="#FE5244"/>
<path d="M248.419 169.046V202.955C246.501 202.872 244.458 202.748 242.353 202.561C234.585 201.887 227.782 200.622 223.977 199.295L224.547 195.541L226.455 182.941H223.987C220.471 182.941 217.63 180.1 217.63 176.585V164.099C217.63 161.631 218.522 159.257 220.15 157.4L228.27 148.119C228.799 147.518 229.794 147.891 229.794 148.69V161.31C229.794 162.824 229.255 164.286 228.27 165.437L227.544 166.287H236.359C237.634 166.287 238.381 164.867 237.665 163.809C236.577 162.222 235.145 159.962 233.787 157.348C231.08 152.174 235.778 149.281 235.778 149.281L246.532 163.228C247.756 164.918 248.419 166.961 248.419 169.046Z" fill="#FFCF2D"/>
<path fill-rule="evenodd" clip-rule="evenodd" d="M229.795 147.756C229.938 147.756 230.054 147.872 230.054 148.015V161.309C230.054 162.885 229.493 164.407 228.468 165.605L228.467 165.605M228.467 165.605L227.742 166.455C227.649 166.564 227.485 166.577 227.376 166.484C227.267 166.391 227.254 166.227 227.347 166.119L228.073 165.268L228.073 165.268C229.018 164.164 229.536 162.762 229.536 161.309V148.015C229.536 147.872 229.652 147.756 229.795 147.756" fill="white"/>
<path fill-rule="evenodd" clip-rule="evenodd" d="M227.716 166.083C227.823 166.178 227.832 166.342 227.737 166.449L221.909 172.993C221.814 173.1 221.65 173.109 221.543 173.014C221.436 172.919 221.426 172.755 221.522 172.648L227.35 166.104C227.445 165.997 227.609 165.988 227.716 166.083Z" fill="white"/>
<path fill-rule="evenodd" clip-rule="evenodd" d="M229.794 155.273C229.937 155.273 230.053 155.39 230.053 155.533C230.053 157.108 229.492 158.63 228.467 159.828C228.467 159.828 228.467 159.828 228.467 159.828L227.739 160.681L221.92 167.216C221.824 167.323 221.661 167.332 221.554 167.237C221.447 167.142 221.437 166.978 221.532 166.871L227.348 160.34L228.073 159.491C229.018 158.387 229.535 156.985 229.535 155.533C229.535 155.39 229.651 155.273 229.794 155.273Z" fill="white"/>
<path fill-rule="evenodd" clip-rule="evenodd" d="M229.795 149.508C229.938 149.508 230.054 149.624 230.054 149.767C230.054 151.343 229.493 152.865 228.468 154.063C228.468 154.063 228.468 154.063 228.468 154.063L227.74 154.915L221.921 161.45C221.825 161.557 221.662 161.566 221.555 161.471C221.448 161.376 221.438 161.212 221.533 161.105L227.349 154.574L228.074 153.726C229.019 152.622 229.536 151.219 229.536 149.767C229.536 149.624 229.652 149.508 229.795 149.508Z" fill="white"/>
<path fill-rule="evenodd" clip-rule="evenodd" d="M226.195 183.283C226.195 183.14 226.311 183.023 226.455 183.023H230.924C231.067 183.023 231.183 183.14 231.183 183.283C231.183 183.426 231.067 183.542 230.924 183.542H226.455C226.311 183.542 226.195 183.426 226.195 183.283Z" fill="white"/>
<path d="M248.42 196.255V202.954C246.501 202.871 244.458 202.747 242.353 202.56C234.585 201.886 227.782 200.621 223.977 199.294L224.547 195.54C228.446 194.969 234.969 194.938 242.363 195.581C244.458 195.778 246.491 195.996 248.42 196.255Z" fill="#FE5244"/>
<path d="M198.227 245.998H140.392V188.663C140.392 191.11 149.901 193.091 161.64 193.091C173.38 193.091 182.889 191.11 182.889 188.663V188.652L198.227 245.998Z" fill="#3FB1B5"/>
<path d="M182.734 187.523C182.734 189.981 173.328 191.961 161.713 191.961C150.098 191.961 140.692 189.981 140.692 187.533V187.523C140.723 185.086 150.119 183.105 161.713 183.105C173.307 183.105 182.713 185.086 182.734 187.523Z" fill="#66B0F0"/>
<path d="M182.734 187.566C182.661 189.993 173.276 191.963 161.713 191.963C159.483 191.963 157.347 191.89 155.335 191.756V170.425H144.363C142.963 170.425 141.833 169.295 141.833 167.895V166.184C141.833 165.416 142.175 164.732 142.714 164.265C142.175 163.798 141.833 163.114 141.833 162.347V160.636C141.833 159.962 142.103 159.339 142.538 158.894C142.103 158.437 141.833 157.825 141.833 157.151V155.44C141.833 154.746 142.113 154.113 142.569 153.646C142.113 153.19 141.833 152.558 141.833 151.863V148.762C141.833 147.362 142.963 146.232 144.363 146.232H158.374C158.84 145.962 159.597 145.008 158.312 144.448L155.304 143.743C152.919 142.551 151.405 140.57 151.405 137.895H161.983C163.756 137.895 165.343 139.014 165.944 140.684L182.474 186.83L182.734 187.566Z" fill="#E57281"/>
<path d="M182.785 187.587C182.754 187.555 182.733 187.535 182.733 187.535C182.733 189.982 173.328 191.963 161.713 191.963C159.483 191.963 157.347 191.89 155.335 191.755V183.325C157.347 183.19 159.493 183.117 161.713 183.117C172.187 183.117 180.877 184.735 182.474 186.84C182.516 186.892 182.63 187.172 182.785 187.587Z" fill="#9A3B82"/>
<path d="M158.613 117.402V125.812C158.613 130.385 154.91 134.087 150.337 134.087C145.764 134.087 142.062 130.385 142.062 125.812V117.402C142.062 119.456 145.764 121.115 150.337 121.115C154.91 121.115 158.613 119.456 158.613 117.402Z" fill="white"/>
<path d="M150.337 121.114C154.907 121.114 158.613 119.452 158.613 117.402C158.613 115.352 154.907 113.689 150.337 113.689C145.767 113.689 142.062 115.352 142.062 117.402C142.062 119.452 145.767 121.114 150.337 121.114Z" fill="#FFCF2D"/>
<path fill-rule="evenodd" clip-rule="evenodd" d="M141.751 102.719H158.924V125.802C158.924 128.987 157.191 131.763 154.621 133.247L154.465 132.978C154.465 132.984 154.465 132.99 154.465 132.996L154.609 133.248C153.351 133.969 151.888 134.388 150.338 134.388C148.811 134.388 147.377 133.991 146.131 133.289H146.127L146.081 133.263C146.076 133.26 146.07 133.257 146.065 133.254C146.062 133.252 146.06 133.251 146.058 133.249L146.055 133.247C143.484 131.763 141.751 128.987 141.751 125.802V102.719ZM154.381 132.667C156.728 131.279 158.302 128.726 158.302 125.802V103.341H142.373V125.802C142.373 128.734 143.955 131.292 146.312 132.677H146.314L146.358 132.702C146.364 132.706 146.37 132.709 146.376 132.713C146.379 132.714 146.381 132.716 146.384 132.717L146.386 132.718C147.553 133.387 148.9 133.766 150.338 133.766C151.774 133.766 153.132 133.377 154.3 132.708L154.372 132.667H154.381Z" fill="#FFCF2D"/>
<path d="M150.337 106.743C154.959 106.743 158.706 105.081 158.706 103.031C158.706 100.98 154.959 99.3184 150.337 99.3184C145.715 99.3184 141.968 100.98 141.968 103.031C141.968 105.081 145.715 106.743 150.337 106.743Z" fill="white"/>
<path fill-rule="evenodd" clip-rule="evenodd" d="M142.814 101.764C142.422 102.175 142.228 102.602 142.228 103.03C142.228 103.458 142.422 103.886 142.814 104.296C143.206 104.708 143.787 105.091 144.525 105.418C145.999 106.072 148.054 106.483 150.337 106.483C152.621 106.483 154.675 106.072 156.15 105.418C156.887 105.091 157.468 104.708 157.861 104.296C158.252 103.886 158.447 103.458 158.447 103.03C158.447 102.602 158.252 102.175 157.861 101.764C157.468 101.352 156.887 100.969 156.15 100.642C154.675 99.9882 152.621 99.5771 150.337 99.5771C148.054 99.5771 145.999 99.9882 144.525 100.642C143.787 100.969 143.206 101.352 142.814 101.764ZM144.314 100.168C145.869 99.4786 147.999 99.0586 150.337 99.0586C152.676 99.0586 154.805 99.4786 156.36 100.168C157.137 100.513 157.782 100.93 158.236 101.406C158.691 101.884 158.965 102.433 158.965 103.03C158.965 103.627 158.691 104.177 158.236 104.654C157.782 105.13 157.137 105.548 156.36 105.892C154.805 106.582 152.676 107.002 150.337 107.002C147.999 107.002 145.869 106.582 144.314 105.892C143.537 105.548 142.892 105.13 142.438 104.654C141.983 104.177 141.709 103.627 141.709 103.03C141.709 102.433 141.983 101.884 142.438 101.406C142.892 100.93 143.537 100.513 144.314 100.168Z" fill="#FFCF2D"/>
<path d="M150.337 103.59C151.013 103.59 151.561 103.042 151.561 102.366C151.561 101.69 151.013 101.143 150.337 101.143C149.661 101.143 149.113 101.69 149.113 102.366C149.113 103.042 149.661 103.59 150.337 103.59Z" fill="#FFCF2D"/>
<path d="M147.64 128.581C148.236 128.581 148.719 128.098 148.719 127.502C148.719 126.907 148.236 126.424 147.64 126.424C147.044 126.424 146.562 126.907 146.562 127.502C146.562 128.098 147.044 128.581 147.64 128.581Z" fill="white"/>
<path fill-rule="evenodd" clip-rule="evenodd" d="M147.641 126.684C147.188 126.684 146.821 127.051 146.821 127.504C146.821 127.956 147.188 128.323 147.641 128.323C148.093 128.323 148.46 127.956 148.46 127.504C148.46 127.051 148.093 126.684 147.641 126.684ZM146.303 127.504C146.303 126.765 146.902 126.166 147.641 126.166C148.379 126.166 148.978 126.765 148.978 127.504C148.978 128.242 148.379 128.841 147.641 128.841C146.902 128.841 146.303 128.242 146.303 127.504Z" fill="#FFCF2D"/>
<path d="M154.113 118.295C154.605 118.295 155.004 117.896 155.004 117.404C155.004 116.911 154.605 116.512 154.113 116.512C153.62 116.512 153.221 116.911 153.221 117.404C153.221 117.896 153.62 118.295 154.113 118.295Z" fill="white"/>
<path d="M145.484 124.985C145.976 124.985 146.376 124.586 146.376 124.093C146.376 123.6 145.976 123.201 145.484 123.201C144.991 123.201 144.592 123.6 144.592 124.093C144.592 124.586 144.991 124.985 145.484 124.985Z" fill="#FFCF2D"/>
<path d="M158.291 176.229H142.383C142.093 176.229 142.01 175.846 142.259 175.711L147.817 173.606C148.688 173.274 149.269 172.434 149.269 171.501V138.359C149.269 136.16 148.128 134.097 146.231 132.987C147.444 133.682 148.844 134.076 150.337 134.076C151.841 134.076 153.241 133.671 154.454 132.977C152.546 134.076 151.405 136.15 151.405 138.348V171.49C151.405 172.424 151.986 173.264 152.857 173.595L158.416 175.7C158.665 175.846 158.582 176.229 158.291 176.229Z" fill="white"/>
<path fill-rule="evenodd" clip-rule="evenodd" d="M152.821 133.967C152.037 134.207 151.203 134.337 150.337 134.337C149.469 134.337 148.632 134.208 147.842 133.967C148.918 135.151 149.528 136.721 149.528 138.361V171.503C149.528 172.544 148.88 173.48 147.909 173.85L147.908 173.851L142.374 175.947C142.373 175.947 142.373 175.947 142.373 175.947C142.372 175.948 142.372 175.949 142.371 175.95C142.37 175.953 142.369 175.958 142.371 175.965C142.371 175.968 142.373 175.97 142.373 175.972C142.374 175.972 142.374 175.972 142.374 175.972C142.376 175.972 142.379 175.972 142.382 175.972H158.291C158.294 175.972 158.297 175.972 158.299 175.972C158.299 175.972 158.299 175.972 158.299 175.972C158.3 175.97 158.301 175.968 158.302 175.964C158.304 175.957 158.303 175.949 158.301 175.943C158.3 175.941 158.299 175.939 158.297 175.936C158.296 175.936 158.296 175.935 158.295 175.934L152.765 173.84L152.764 173.84C151.793 173.47 151.145 172.534 151.145 171.493V138.35C151.145 136.718 151.75 135.149 152.821 133.967ZM150.337 133.819C151.793 133.819 153.149 133.427 154.325 132.754L154.583 133.204C152.759 134.254 151.664 136.24 151.664 138.35V171.493C151.664 172.318 152.178 173.061 152.948 173.355L152.949 173.355M147.725 173.366C147.725 173.366 147.724 173.366 147.724 173.366L142.15 175.477L142.135 175.485C141.895 175.615 141.817 175.869 141.865 176.081C141.915 176.297 142.102 176.491 142.382 176.491H158.291C158.571 176.491 158.758 176.296 158.808 176.079C158.856 175.866 158.778 175.614 158.546 175.479L158.527 175.468L152.949 173.355M147.725 173.366C148.495 173.072 149.009 172.328 149.009 171.503V138.361C149.009 136.251 147.914 134.274 146.099 133.213L146.359 132.764C147.534 133.437 148.889 133.819 150.337 133.819" fill="#FFCF2D"/>
<path d="M144.447 90.5745C145.225 90.5745 145.857 89.9431 145.857 89.1642C145.857 88.3853 145.225 87.7539 144.447 87.7539C143.668 87.7539 143.036 88.3853 143.036 89.1642C143.036 89.9431 143.668 90.5745 144.447 90.5745Z" fill="#FFCF2D"/>
<path d="M154.111 92.8477C154.787 92.8477 155.335 92.2998 155.335 91.624C155.335 90.9482 154.787 90.4004 154.111 90.4004C153.436 90.4004 152.888 90.9482 152.888 91.624C152.888 92.2998 153.436 92.8477 154.111 92.8477Z" fill="white"/>
<path fill-rule="evenodd" clip-rule="evenodd" d="M154.112 90.6591C153.579 90.6591 153.147 91.0909 153.147 91.6235C153.147 92.1561 153.579 92.5879 154.112 92.5879C154.645 92.5879 155.076 92.1561 155.076 91.6235C155.076 91.0909 154.645 90.6591 154.112 90.6591ZM152.629 91.6235C152.629 90.8045 153.293 90.1406 154.112 90.1406C154.931 90.1406 155.595 90.8045 155.595 91.6235C155.595 92.4425 154.931 93.1064 154.112 93.1064C153.293 93.1064 152.629 92.4425 152.629 91.6235Z" fill="#FFCF2D"/>
<path d="M148.118 97.6176C148.611 97.6176 149.01 97.2183 149.01 96.7258C149.01 96.2333 148.611 95.834 148.118 95.834C147.626 95.834 147.227 96.2333 147.227 96.7258C147.227 97.2183 147.626 97.6176 148.118 97.6176Z" fill="white"/>
<path fill-rule="evenodd" clip-rule="evenodd" d="M148.117 96.0927C147.768 96.0927 147.484 96.3759 147.484 96.7253C147.484 97.0746 147.768 97.3578 148.117 97.3578C148.466 97.3578 148.75 97.0746 148.75 96.7253C148.75 96.3759 148.466 96.0927 148.117 96.0927ZM146.966 96.7253C146.966 96.0896 147.481 95.5742 148.117 95.5742C148.753 95.5742 149.268 96.0896 149.268 96.7253C149.268 97.361 148.753 97.8763 148.117 97.8763C147.481 97.8763 146.966 97.361 146.966 96.7253Z" fill="#FFCF2D"/>
<path d="M147.652 86.7596C148.059 86.7596 148.389 86.43 148.389 86.0234C148.389 85.6167 148.059 85.2871 147.652 85.2871C147.246 85.2871 146.916 85.6167 146.916 86.0234C146.916 86.43 147.246 86.7596 147.652 86.7596Z" fill="#FFCF2D"/>
<path d="M160.997 149.561V170.435H144.363C142.963 170.435 141.833 169.305 141.833 167.905V166.194C141.833 165.426 142.175 164.742 142.714 164.275C142.175 163.809 141.833 163.124 141.833 162.357V160.646C141.833 159.972 142.103 159.35 142.538 158.904C142.103 158.448 141.833 157.836 141.833 157.162V155.451C141.833 154.756 142.113 154.123 142.569 153.657C142.113 153.2 141.833 152.568 141.833 151.873V149.571H160.997V149.561Z" fill="#E57281"/>
<path fill-rule="evenodd" clip-rule="evenodd" d="M142.123 161.951C142.266 161.951 142.382 162.067 142.382 162.21C142.382 163.654 143.552 164.824 144.995 164.824H158.456C159.899 164.824 161.069 163.654 161.069 162.21C161.069 162.067 161.185 161.951 161.328 161.951C161.472 161.951 161.588 162.067 161.588 162.21C161.588 163.94 160.186 165.342 158.456 165.342H144.995C143.265 165.342 141.863 163.94 141.863 162.21C141.863 162.067 141.979 161.951 142.123 161.951Z" fill="#9A3B82"/>
<path fill-rule="evenodd" clip-rule="evenodd" d="M142.123 156.777C142.266 156.777 142.382 156.893 142.382 157.037C142.382 158.48 143.552 159.65 144.995 159.65H158.456C159.899 159.65 161.069 158.48 161.069 157.037C161.069 156.893 161.185 156.777 161.328 156.777C161.472 156.777 161.588 156.893 161.588 157.037C161.588 158.766 160.186 160.168 158.456 160.168H144.995C143.265 160.168 141.863 158.766 141.863 157.037C141.863 156.893 141.979 156.777 142.123 156.777Z" fill="#9A3B82"/>
<path fill-rule="evenodd" clip-rule="evenodd" d="M142.123 151.604C142.266 151.604 142.382 151.72 142.382 151.863C142.382 153.306 143.552 154.476 144.995 154.476H158.456C159.899 154.476 161.069 153.306 161.069 151.863C161.069 151.72 161.185 151.604 161.328 151.604C161.472 151.604 161.588 151.72 161.588 151.863C161.588 153.593 160.186 154.994 158.456 154.994H144.995C143.265 154.994 141.863 153.593 141.863 151.863C141.863 151.72 141.979 151.604 142.123 151.604Z" fill="#9A3B82"/>
<path fill-rule="evenodd" clip-rule="evenodd" d="M161.329 147.725C161.472 147.725 161.588 147.841 161.588 147.984V167.386C161.588 169.116 160.186 170.518 158.456 170.518H144.861C144.718 170.518 144.602 170.402 144.602 170.258C144.602 170.115 144.718 169.999 144.861 169.999H158.456C159.9 169.999 161.07 168.829 161.07 167.386V147.984C161.07 147.841 161.186 147.725 161.329 147.725Z" fill="#9A3B82"/>
<path fill-rule="evenodd" clip-rule="evenodd" d="M158.268 146.501C157.416 146.501 156.723 147.194 156.723 148.046C156.723 149.03 155.922 149.819 154.95 149.819H147.234C146.635 149.819 146.146 149.33 146.146 148.73C146.146 148.131 146.635 147.642 147.234 147.642H148.614C148.757 147.642 148.873 147.758 148.873 147.901C148.873 148.044 148.757 148.16 148.614 148.16H147.234C146.921 148.16 146.664 148.417 146.664 148.73C146.664 149.044 146.921 149.301 147.234 149.301H154.95C155.638 149.301 156.205 148.742 156.205 148.046C156.205 146.907 157.13 145.982 158.268 145.982H159.523C160.662 145.982 161.587 146.907 161.587 148.046V151.406C161.587 151.549 161.471 151.665 161.328 151.665C161.185 151.665 161.068 151.549 161.068 151.406V148.046C161.068 147.194 160.376 146.501 159.523 146.501H158.268Z" fill="#9A3B82"/>
<path d="M242.778 41.0289L208.255 76.4316L168.454 32.5567L211.895 1.98633L242.778 41.0289Z" fill="#3FB1B5"/>
<path fill-rule="evenodd" clip-rule="evenodd" d="M165.614 32.4115L211.12 0.50946L210.763 0L164.678 32.3082L206.678 78.3421L207.137 77.9228L165.614 32.4115Z" fill="#FFCF2D"/>
<path fill-rule="evenodd" clip-rule="evenodd" d="M218.764 45.4712C218.157 41.3679 214.342 38.5204 210.23 39.1277L207.627 39.5114L207.536 38.8959L210.139 38.5122C210.139 38.5122 210.139 38.5122 210.139 38.5122C214.593 37.8545 218.722 40.9385 219.38 45.38L219.38 45.3804L221.651 60.8521C221.651 60.8521 221.651 60.8522 221.651 60.8521C222.388 65.8611 227.765 68.7287 232.336 66.5381L232.336 66.538L243.194 61.3427L243.462 61.9039L232.605 67.0992" fill="#FFCF2D"/>
<path d="M257.173 64.59C258.282 65.1914 259.33 65.8136 260.284 66.4358C260.118 67.338 259.807 68.2298 259.35 69.0905C258.894 69.9408 258.313 70.6978 257.65 71.3304C256.602 70.8741 255.503 70.3453 254.393 69.7438C248.845 66.7469 244.977 63.1693 245.744 61.7486C246.512 60.328 251.625 61.5931 257.173 64.59Z" fill="#FFCF2D"/>
<path fill-rule="evenodd" clip-rule="evenodd" d="M244.563 60.3898C244.042 60.3898 243.619 60.8123 243.619 61.3334C243.619 61.8546 244.042 62.2771 244.563 62.2771C245.084 62.2771 245.507 61.8546 245.507 61.3334C245.507 60.8123 245.084 60.3898 244.563 60.3898ZM242.997 61.3334C242.997 60.4686 243.698 59.7676 244.563 59.7676C245.428 59.7676 246.129 60.4686 246.129 61.3334C246.129 62.1982 245.428 62.8993 244.563 62.8993C243.698 62.8993 242.997 62.1982 242.997 61.3334Z" fill="#66B0F0"/>
<path d="M121.175 207.156V246.002H76.2812V223.115C77.2561 225.666 88.6842 224.038 100.88 219.372C111.852 215.172 120.324 210.008 121.175 207.156Z" fill="#FE5244"/>
<path d="M121.175 206.026C120.314 208.878 111.852 214.042 100.87 218.242C88.6844 222.908 77.2563 224.536 76.2711 221.985C75.2859 219.434 85.1378 213.658 97.3333 208.992C109.519 204.325 120.2 202.614 121.175 205.165C121.278 205.425 121.278 205.715 121.175 206.026Z" fill="#66B0F0"/>
<path d="M111.666 180.267V213.181L109.187 214.435C106.678 215.659 103.867 216.872 100.881 218.013C95.3948 220.118 90.054 221.601 85.7607 222.368L88.2288 212.673L92.2525 196.848C90.3444 196.848 88.54 195.998 87.3266 194.525L70.8066 175.735C73.6377 173.153 77.8688 176.668 77.8688 176.668L76.2822 168.569C75.9089 166.651 76.4689 164.66 77.7859 163.219L82.8051 157.712C83.8007 156.623 85.5948 157.049 86.0096 158.459L89.577 170.768C89.577 170.768 98.4333 177.529 100.093 177.529C101.97 177.529 102.623 176.005 99.1177 170.996C96.4836 167.232 99.1177 164.484 99.1177 164.484L107.694 171.701C110.214 173.837 111.666 176.969 111.666 180.267Z" fill="white"/>
<path fill-rule="evenodd" clip-rule="evenodd" d="M82.9962 157.887C82.9961 157.887 82.9961 157.887 82.996 157.887L77.9768 163.393C76.7152 164.774 76.1786 166.682 76.5362 168.519C76.5362 168.52 76.5362 168.52 76.5362 168.52L78.2628 177.333L77.7028 176.868L77.7007 176.866C77.699 176.864 77.6963 176.862 77.6927 176.859C77.6854 176.853 77.6741 176.844 77.6591 176.832C77.629 176.809 77.584 176.773 77.5253 176.729C77.4078 176.641 77.236 176.517 77.0208 176.376C76.5895 176.093 75.9882 175.744 75.3039 175.474C73.9929 174.958 72.4459 174.756 71.1748 175.761L87.5236 194.357L87.5262 194.36C88.6903 195.773 90.4213 196.589 92.2521 196.589H92.5855L88.4796 212.736L86.1111 222.041C90.3167 221.257 95.4825 219.806 100.787 217.771L100.788 217.771C103.767 216.633 106.57 215.423 109.072 214.203C109.072 214.203 109.073 214.202 109.073 214.202L111.406 213.021V180.266C111.406 177.045 109.988 173.986 107.526 171.899C107.526 171.899 107.526 171.899 107.526 171.899L99.1497 164.85C99.0964 164.919 99.0328 165.007 98.9642 165.113C98.7691 165.413 98.5348 165.851 98.3788 166.399C98.0697 167.486 98.0597 169.032 99.3297 170.847C100.211 172.106 100.836 173.154 101.246 174.018C101.655 174.88 101.86 175.576 101.882 176.13C101.904 176.693 101.738 177.128 101.389 177.413C101.052 177.688 100.589 177.788 100.092 177.788C99.8216 177.788 99.4548 177.658 99.0553 177.474C98.6425 177.283 98.1517 177.014 97.6163 176.695C96.5447 176.056 95.2762 175.207 94.0637 174.361C92.8503 173.514 91.6893 172.667 90.832 172.032C90.4032 171.715 90.0502 171.45 89.8043 171.265C89.6813 171.173 89.5852 171.1 89.5197 171.05C89.4869 171.025 89.4618 171.006 89.4449 170.993L89.4193 170.974C89.4192 170.974 89.4192 170.974 89.5765 170.768L89.4192 170.974L89.3513 170.922L85.7604 158.532C85.7603 158.531 85.7602 158.531 85.7602 158.531C85.4014 157.313 83.854 156.949 82.9962 157.887ZM89.8017 170.613L86.2581 158.386L86.2578 158.385C85.7866 156.783 83.7465 156.298 82.6133 157.537L82.613 157.537L77.594 163.043C76.2216 164.546 75.6382 166.62 76.0272 168.619L77.4857 176.063C77.4293 176.025 77.3691 175.984 77.3052 175.942C76.8548 175.647 76.2213 175.278 75.4939 174.992C74.0491 174.423 72.1573 174.152 70.6314 175.543L70.4434 175.715L87.1287 194.693C88.3208 196.138 90.0603 197.006 91.9207 197.099L87.9771 212.608L85.4097 222.694L85.8058 222.623C90.1173 221.853 95.4738 220.365 100.973 218.255C100.973 218.255 100.973 218.255 100.973 218.255L100.88 218.013L100.973 218.255C100.973 218.255 100.973 218.255 100.973 218.255C103.966 217.112 106.783 215.895 109.3 214.668L109.302 214.667L109.304 214.666L111.925 213.34V180.266C111.925 176.892 110.439 173.689 107.861 171.503L99.0982 164.129L98.9301 164.304L99.1172 164.483C98.9301 164.304 98.93 164.304 98.9298 164.304L98.9288 164.305L98.9265 164.308C98.9247 164.31 98.9222 164.312 98.9192 164.316C98.9132 164.322 98.9048 164.331 98.8943 164.343C98.8732 164.367 98.8438 164.401 98.8078 164.446C98.7359 164.534 98.6379 164.664 98.5295 164.83C98.313 165.163 98.0533 165.648 97.8801 166.257C97.5307 167.486 97.5407 169.195 98.9048 171.144C99.7761 172.389 100.384 173.411 100.778 174.241C101.174 175.074 101.346 175.697 101.364 176.151C101.382 176.595 101.252 176.855 101.06 177.012C100.856 177.179 100.534 177.27 100.092 177.27C99.9477 177.27 99.6747 177.188 99.2724 177.003C98.8832 176.823 98.4099 176.564 97.8817 176.25C96.8261 175.621 95.5694 174.779 94.3605 173.936C93.1523 173.092 91.9955 172.249 91.1405 171.616C90.713 171.299 90.3612 171.036 90.1163 170.851C89.9938 170.759 89.8981 170.686 89.8331 170.637C89.8217 170.628 89.8112 170.62 89.8017 170.613Z" fill="#FFCF2D"/>
<path fill-rule="evenodd" clip-rule="evenodd" d="M79.8428 160.598C80.9363 159.397 82.8519 159.867 83.3012 161.415L86.7109 173.179L92.9208 178.147L92.5969 178.551L86.2587 173.481L82.8032 161.56C82.8032 161.56 82.8032 161.56 82.8032 161.56C82.4643 160.392 81.0407 160.052 80.2261 160.947L79.8428 160.598Z" fill="#FFCF2D"/>
<path fill-rule="evenodd" clip-rule="evenodd" d="M76.8457 164.061C77.8848 162.915 79.7712 163.357 80.2008 164.837L83.4243 175.969L88.8162 180.356L88.489 180.759L82.9713 176.269L79.7029 164.982C79.3858 163.89 77.9952 163.565 77.2299 164.409L76.8457 164.061Z" fill="#FFCF2D"/>
<path fill-rule="evenodd" clip-rule="evenodd" d="M78.0236 176.48L83.9969 181.489L83.6637 181.886L77.6904 176.878L78.0236 176.48Z" fill="#FFCF2D"/>
<path fill-rule="evenodd" clip-rule="evenodd" d="M99.2302 197.108H92.251V196.59H99.2302V197.108Z" fill="#FFCF2D"/>
<path d="M111.665 204.697V213.398C108.575 215.036 104.893 216.695 100.88 218.24C95.3837 220.345 90.043 221.828 85.7393 222.596L88.2281 212.889C90.9867 211.562 94.077 210.235 97.3437 208.99C102.622 206.979 107.621 205.506 111.665 204.697Z" fill="#FFCF2D"/>
<path fill-rule="evenodd" clip-rule="evenodd" d="M107.483 102.13L104.351 95.258L104.917 95L108.09 101.961L108.096 102.009C108.417 104.742 106.469 107.208 103.738 107.539L103.737 107.54C101.347 107.82 99.6433 109.988 99.924 112.379C99.924 112.379 99.924 112.379 99.924 112.379L100.38 116.216L99.7624 116.289L99.306 112.452C98.9854 109.721 100.931 107.243 103.664 106.922C106.04 106.633 107.736 104.501 107.483 102.13Z" fill="#FFCF2D"/>
<path d="M141.117 72.9063L157.73 46.9817L100.59 46.5254L81.8711 96.363L112.775 94.9112L141.117 72.9063Z" fill="#FE5244"/>
<path fill-rule="evenodd" clip-rule="evenodd" d="M98.4575 44.0449L158.419 44.7214L158.411 45.3436L98.8852 44.672L79.1238 96.7744L78.542 96.5538L98.4575 44.0449Z" fill="#FFCF2D"/>
<path d="M140.091 69.019C143.409 74.712 137.768 84.1901 127.481 90.1839C117.193 96.1777 106.169 96.4162 102.851 90.7231C102.395 89.9454 102.115 89.1054 101.98 88.2032C101.15 82.5102 106.574 74.7328 115.461 69.5582C124.349 64.3836 133.786 63.4918 138.328 67.0176C139.044 67.5775 139.635 68.2412 140.091 69.019Z" fill="#66B0F0"/>
<path fill-rule="evenodd" clip-rule="evenodd" d="M128.557 65.3331C124.568 65.757 120.029 67.2573 115.618 69.8256C111.207 72.3937 107.664 75.6033 105.329 78.8658C102.99 82.135 101.889 85.4213 102.287 88.1563C102.417 89.023 102.685 89.8243 103.119 90.5642L103.119 90.565C104.696 93.2692 108.138 94.6197 112.545 94.5236C116.94 94.4277 122.217 92.8891 127.324 89.9136C132.431 86.9382 136.371 83.105 138.62 79.328C140.876 75.5406 141.398 71.8788 139.822 69.1746C139.387 68.4326 138.822 67.7983 138.136 67.2613C135.954 65.568 132.553 64.9085 128.557 65.3331ZM128.491 64.7144C132.57 64.2811 136.158 64.9384 138.518 66.7704L138.519 66.7711C139.264 67.3539 139.882 68.0468 140.359 68.8601L140.359 68.8608C142.102 71.8497 141.462 75.7732 139.155 79.6464C136.842 83.5301 132.817 87.4329 127.637 90.4512C122.456 93.4695 117.078 95.047 112.559 95.1456C108.053 95.2439 104.324 93.8673 102.582 90.8787C102.104 90.0634 101.812 89.1851 101.672 88.2477L101.672 88.2466C101.241 85.2886 102.436 81.84 104.823 78.5038C107.215 75.1607 110.828 71.8943 115.304 69.2879C119.781 66.6816 124.404 65.1487 128.491 64.7144Z" fill="white"/>
<path fill-rule="evenodd" clip-rule="evenodd" d="M127.757 60.6464C123.351 60.7438 118.065 62.2857 112.957 65.2596C107.844 68.2386 103.897 72.0775 101.642 75.8634C99.3821 79.6582 98.8505 83.342 100.441 86.0699L100.441 86.07L101.729 88.2813C101.727 88.2666 101.725 88.2519 101.723 88.2372L101.98 88.2018L101.723 88.2388C101.3 85.2997 102.488 81.8647 104.869 78.5341C107.255 75.1977 110.86 71.936 115.331 69.3328C119.802 66.7296 124.417 65.1995 128.496 64.7661C132.568 64.3334 136.141 64.9909 138.487 66.8114L138.488 66.812C138.499 66.8208 138.51 66.8296 138.521 66.8385L137.233 64.6269C135.643 61.8991 132.174 60.5488 127.757 60.6464ZM140.314 68.8864L137.681 64.3658L137.681 64.3658C135.952 61.4005 132.245 60.0287 127.746 60.1281C123.236 60.2277 117.866 61.802 112.697 64.8115L112.696 64.8116C107.522 67.8263 103.505 71.7233 101.197 75.5981C98.8942 79.4641 98.2643 83.3658 99.9926 86.331C99.9927 86.331 99.9927 86.331 99.9927 86.331L102.605 90.815C102.612 90.8277 102.62 90.8403 102.627 90.8529L103.075 90.5912L103.074 90.5905C103.067 90.5786 103.06 90.5667 103.054 90.5548C102.627 89.8168 102.354 89.0213 102.236 88.1664L102.236 88.1657L102.236 88.1649C101.84 85.4109 102.949 82.1106 105.291 78.8357C107.629 75.5665 111.175 72.3522 115.592 69.7809C120.008 67.2094 124.554 65.7064 128.551 65.2817C132.555 64.8563 135.972 65.5157 138.168 67.2208C138.859 67.7616 139.428 68.4008 139.867 69.1488L140.315 68.8871L140.314 68.8864Z" fill="white"/>
<path d="M99.1787 130.232C98.7742 131.425 98.3387 132.565 97.8824 133.613C96.9594 133.602 96.0261 133.447 95.1135 133.136C94.1905 132.825 93.3609 132.389 92.6143 131.84C92.8839 130.73 93.2157 129.558 93.6202 128.366C95.632 122.393 98.4942 117.975 100.029 118.483C101.564 119.002 101.18 124.259 99.1787 130.232Z" fill="#FFCF2D"/>
<path fill-rule="evenodd" clip-rule="evenodd" d="M100.237 116.304C99.7156 116.304 99.2931 116.726 99.2931 117.248C99.2931 117.769 99.7156 118.191 100.237 118.191C100.758 118.191 101.181 117.769 101.181 117.248C101.181 116.726 100.758 116.304 100.237 116.304ZM98.6709 117.248C98.6709 116.383 99.372 115.682 100.237 115.682C101.102 115.682 101.803 116.383 101.803 117.248C101.803 118.112 101.102 118.813 100.237 118.813C99.372 118.813 98.6709 118.112 98.6709 117.248Z" fill="#66B0F0"/>
<path d="M46.6955 203.554V245.997H0.0703125V183.529C0.982904 186.588 10.7414 192.966 22.854 198.296C35.7444 203.989 46.4258 206.333 46.6955 203.554Z" fill="#66B0F0"/>
<path d="M46.6951 202.424C46.4151 205.204 35.744 202.85 22.8537 197.167C10.7411 191.827 0.982595 185.449 0.0700031 182.4C0.00778097 182.203 -0.0129635 182.017 0.00777718 181.851C0.277406 179.072 10.9589 181.426 23.8492 187.108C36.7396 192.791 46.9751 199.645 46.6951 202.424Z" fill="#9A3B82"/>
<path d="M19.1019 141.544C20.2115 139.262 22.5241 137.811 25.0649 137.811H32.3967L32.7804 167.282L37.893 194.368L39.5211 202.975C35.2071 202.021 29.3167 200.019 22.8663 197.178C19.216 195.571 14.6426 193.186 11.5938 191.506V155.647C11.5938 155.159 11.6871 154.672 11.853 154.216L19.1019 141.544Z" fill="#A0505A"/>
<path d="M39.5084 202.975C35.1944 202.021 29.304 200.019 22.8536 197.178C19.2033 195.571 14.6299 193.186 11.5811 191.506V182.494C14.9099 183.562 19.8359 185.346 23.8492 187.109C29.2625 189.494 33.9914 191.951 37.8907 194.368L39.5084 202.975Z" fill="#73325A"/>
<path d="M66.8139 104.68L27.811 176.439C26.3695 179.094 22.3977 179.726 18.9444 177.849C15.491 175.972 13.8629 172.302 15.3044 169.636L54.3073 97.877L66.8139 104.68Z" fill="white"/>
<path fill-rule="evenodd" clip-rule="evenodd" d="M54.2033 97.5234L67.1654 104.574L28.0388 176.561C27.2716 177.974 25.8391 178.833 24.1728 179.098C22.5068 179.363 20.5931 179.039 18.8205 178.075C15.3001 176.162 13.5388 172.354 15.0762 169.511L15.0765 169.511L54.2033 97.5234ZM54.4111 98.2267L15.5323 169.758C14.1867 172.246 15.6818 175.779 19.0681 177.62C20.7488 178.533 22.5476 178.831 24.0913 178.586C25.6347 178.34 26.9088 177.555 27.5831 176.314L66.4623 104.782L54.4111 98.2267Z" fill="#FFCF2D"/>
<path d="M66.8068 104.696C68.2508 102.039 66.623 98.3645 63.171 96.4885C59.719 94.6125 55.75 95.2455 54.306 97.9023C52.862 100.559 54.4898 104.234 57.9418 106.11C61.3938 107.986 65.3628 107.353 66.8068 104.696Z" fill="#66B0F0"/>
<path fill-rule="evenodd" clip-rule="evenodd" d="M54.5338 98.0256C53.1863 100.505 54.6804 104.042 58.0656 105.881C61.4509 107.721 65.2316 107.051 66.579 104.572C67.9265 102.092 66.4324 98.5555 63.0472 96.7158C59.662 94.8761 55.8812 95.5465 54.5338 98.0256ZM57.818 106.337C54.2993 104.425 52.5377 100.613 54.0782 97.7781C55.6187 94.9436 59.776 94.348 63.2948 96.2603C66.8136 98.1726 68.5751 101.985 67.0346 104.819C65.4941 107.654 61.3368 108.249 57.818 106.337Z" fill="#FFCF2D"/>
<path d="M41.334 132.148L59.7621 117.102L59.4717 122.452L65.3725 123.925L51.9325 132.221C55.5414 131.599 59.8865 131.091 63.4643 131.371C67.7265 131.702 66.2954 136.69 64.6984 140.952C68.4317 140.589 80.9488 133.009 85.6673 134.44C88.5502 135.311 87.5132 141.191 86.6836 144.437C87.8865 144.499 93.9739 144.426 93.9739 144.426L90.7591 147.361L92.5221 150.296C85.6776 150.596 85.5947 149.518 86.4554 144.665C86.6006 139.386 80.7517 144.457 68.2969 147.433C62.1266 148.906 62.9251 144.893 64.4495 140.714C63.8377 138.795 59.2643 136.711 44.5695 140.548L41.334 132.148Z" fill="#FE5244"/>
<path d="M41.6036 141.314C44.6105 141.314 47.0481 138.877 47.0481 135.87C47.0481 132.863 44.6105 130.426 41.6036 130.426C38.5967 130.426 36.1592 132.863 36.1592 135.87C36.1592 138.877 38.5967 141.314 41.6036 141.314Z" fill="white"/>
<path fill-rule="evenodd" clip-rule="evenodd" d="M41.6031 130.685C38.7394 130.685 36.4179 133.006 36.4179 135.869C36.4179 138.733 38.7394 141.054 41.6031 141.054C44.4668 141.054 46.7883 138.733 46.7883 135.869C46.7883 133.006 44.4668 130.685 41.6031 130.685ZM35.8994 135.869C35.8994 132.72 38.453 130.166 41.6031 130.166C44.7532 130.166 47.3068 132.72 47.3068 135.869C47.3068 139.019 44.7532 141.573 41.6031 141.573C38.453 141.573 35.8994 139.019 35.8994 135.869Z" fill="#FE5244"/>
<path d="M39.7264 137.811V138.153C39.7264 141.637 36.9056 144.468 33.4108 144.468H26.7842V137.811H39.7264Z" fill="#A0505A"/>
<path d="M47.7944 150.596L46.0418 154.702L43.9988 159.504L42.8892 162.107L41.1988 166.078C41.1573 166.182 41.0951 166.296 41.0433 166.389C41.0433 166.4 41.0329 166.4 41.0329 166.41C40.4936 167.343 39.4462 167.924 38.2951 167.924H24.8655C23.2373 167.924 22.1277 166.379 22.7292 164.958L23.704 162.667L25.8507 157.627L27.6966 153.282L29.3247 149.466C29.8018 148.346 30.9529 147.609 32.2388 147.609H45.6684C47.2862 147.63 48.3958 149.175 47.7944 150.596Z" fill="#A0505A"/>
<path fill-rule="evenodd" clip-rule="evenodd" d="M30.4983 152.565C29.7018 152.565 28.9626 152.907 28.451 153.475C28.3552 153.581 28.1913 153.59 28.0848 153.494C27.9784 153.399 27.9698 153.235 28.0656 153.128C28.674 152.452 29.5526 152.047 30.4983 152.047H43.3264C44.8311 152.047 45.9236 153.344 45.7723 154.73C45.7567 154.872 45.6288 154.975 45.4864 154.959C45.3441 154.944 45.2413 154.816 45.2568 154.673C45.3751 153.591 44.5181 152.565 43.3264 152.565H30.4983Z" fill="#73325A"/>
<path fill-rule="evenodd" clip-rule="evenodd" d="M28.641 157.034C27.8904 157.034 27.1993 157.328 26.6984 157.829C26.5972 157.931 26.433 157.931 26.3318 157.829C26.2305 157.728 26.2305 157.564 26.3318 157.463C26.9302 156.864 27.7532 156.516 28.641 156.516H41.4692C43.111 156.516 44.2542 158.046 43.8346 159.561C43.7964 159.699 43.6535 159.78 43.5155 159.742C43.3776 159.703 43.2967 159.561 43.3349 159.423C43.6619 158.242 42.7725 157.034 41.4692 157.034H28.641Z" fill="#73325A"/>
<path fill-rule="evenodd" clip-rule="evenodd" d="M26.5775 162.116C25.8559 162.116 25.1831 162.391 24.6813 162.865C24.5772 162.963 24.4131 162.958 24.3148 162.854C24.2166 162.75 24.2213 162.586 24.3255 162.488C24.9229 161.924 25.7228 161.598 26.5775 161.598H39.4056C41.0939 161.598 42.2723 163.243 41.7243 164.805C41.6769 164.94 41.529 165.011 41.3939 164.964C41.2588 164.916 41.1876 164.768 41.235 164.633C41.6619 163.416 40.7454 162.116 39.4056 162.116H26.5775Z" fill="#73325A"/>
<path d="M70.8896 29.9846C71.7503 29.0617 72.6111 28.201 73.4614 27.4336C74.2911 27.8173 75.0792 28.3461 75.7948 29.0098C76.5 29.6735 77.0911 30.4201 77.537 31.2186C76.8318 32.1208 76.0437 33.0437 75.1829 33.9666C70.8896 38.5812 66.4614 41.4329 65.2689 40.3337C64.0866 39.2345 66.5963 34.5992 70.8896 29.9846Z" fill="#FFCF2D"/>
<path d="M40.7535 66.527L39.3846 67.3774C34.4172 70.4572 24.7416 63.8309 17.7831 52.5796C10.8143 41.3282 9.19648 29.7244 14.1535 26.6445L15.5639 25.7734L23.9535 50.4537L40.7535 66.527Z" fill="#66B0F0"/>
<path d="M54.6497 79.8317L40.7534 66.5271L23.943 50.4434L15.5534 25.7735L8.05566 3.7168L42.9727 31.8503L54.6497 79.8317Z" fill="#66B0F0"/>
<path fill-rule="evenodd" clip-rule="evenodd" d="M7.41602 2.80273L43.2499 31.675L55.2037 80.7936L40.5382 66.7527L23.6729 50.6164L15.2588 25.8745L7.41602 2.80273ZM8.69517 4.63242L15.8479 25.6741L24.213 50.272L40.9684 66.3031L54.0955 78.8712L42.6952 32.0271L8.69517 4.63242Z" fill="white"/>
<path fill-rule="evenodd" clip-rule="evenodd" d="M8.98461 2.5293L44.4217 30.439L56.0411 78.442L55.4363 78.5884L43.8676 30.7946L8.59961 3.01808L8.98461 2.5293Z" fill="#9A3B82"/>
<path fill-rule="evenodd" clip-rule="evenodd" d="M49.1371 42.2727C48.0871 39.0066 44.6918 37.0966 41.3457 37.9083L41.3454 37.9084C37.8208 38.7598 35.6521 42.3143 36.5037 45.8392L35.8989 45.9853C34.9667 42.1269 37.3402 38.2359 41.1992 37.3036C44.8629 36.4149 48.581 38.5069 49.73 42.0839L49.7305 42.0855L52.6451 51.4925L52.6452 51.4928C54.1567 56.388 61.2096 56.0102 62.1952 50.9752L63.8751 42.3375L64.4859 42.4562L62.8059 51.0943L62.8058 51.0947C61.6966 56.7613 53.7542 57.1925 52.0507 51.6766M52.0506 51.6763L49.1376 42.2742C49.1375 42.2737 49.1373 42.2732 49.1371 42.2727" fill="#FFCF2D"/>
<path fill-rule="evenodd" clip-rule="evenodd" d="M64.5737 40.4386C64.0525 40.4386 63.63 40.8611 63.63 41.3823C63.63 41.9034 64.0525 42.3259 64.5737 42.3259C65.0949 42.3259 65.5174 41.9034 65.5174 41.3823C65.5174 40.8611 65.0949 40.4386 64.5737 40.4386ZM63.0078 41.3823C63.0078 40.5175 63.7089 39.8164 64.5737 39.8164C65.4386 39.8164 66.1397 40.5175 66.1397 41.3823C66.1397 42.247 65.4386 42.9481 64.5737 42.9481C63.7089 42.9481 63.0078 42.247 63.0078 41.3823Z" fill="#66B0F0"/>
</g>
<defs>
<clipPath id="clip0_2234_9993">
<rect width="354" height="246" fill="white"/>
</clipPath>
</defs>
</svg>
